<?xml version="1.0" encoding="UTF-8" standalone="no"?>
<svg
   xmlns:dc="http://purl.org/dc/elements/1.1/"
   xmlns:cc="http://creativecommons.org/ns#"
   xmlns:rdf="http://www.w3.org/1999/02/22-rdf-syntax-ns#"
   xmlns:svg="http://www.w3.org/2000/svg"
   xmlns="http://www.w3.org/2000/svg"
   xmlns:sodipodi="http://sodipodi.sourceforge.net/DTD/sodipodi-0.dtd"
   xmlns:inkscape="http://www.inkscape.org/namespaces/inkscape"
   width="148mm"
   height="210mm"
   viewBox="0 0 148 210"
   version="1.1"
   id="svg8"
   inkscape:version="1.0.1 (3bc2e813f5, 2020-09-07)"
   sodipodi:docname="dsa_simple.svg">
  <defs
     id="defs2">
    <marker
       style="overflow:visible"
       id="Arrow1Sstart"
       refX="0.0"
       refY="0.0"
       orient="auto"
       inkscape:stockid="Arrow1Sstart"
       inkscape:isstock="true">
      <path
         transform="scale(0.2) translate(6,0)"
         style="fill-rule:evenodd;stroke:#000000;stroke-width:1.0pt"
         d="M 0.0,0.0 L 5.0,-5.0 L -12.5,0.0 L 5.0,5.0 L 0.0,0.0 z "
         id="path2002" />
    </marker>
    <marker
       style="overflow:visible"
       id="Arrow1Lstart"
       refX="0.0"
       refY="0.0"
       orient="auto"
       inkscape:stockid="Arrow1Lstart"
       inkscape:isstock="true">
      <path
         transform="scale(0.8) translate(12.5,0)"
         style="fill-rule:evenodd;stroke:#000000;stroke-width:1.0pt"
         d="M 0.0,0.0 L 5.0,-5.0 L -12.5,0.0 L 5.0,5.0 L 0.0,0.0 z "
         id="path1990" />
    </marker>
  </defs>
  <sodipodi:namedview
     id="base"
     pagecolor="#ffffff"
     bordercolor="#666666"
     borderopacity="1.0"
     inkscape:pageopacity="0.0"
     inkscape:pageshadow="2"
     inkscape:zoom="0.98994949"
     inkscape:cx="383.82474"
     inkscape:cy="304.30195"
     inkscape:document-units="mm"
     inkscape:current-layer="layer1"
     inkscape:document-rotation="0"
     showgrid="true"
     inkscape:window-width="1364"
     inkscape:window-height="766"
     inkscape:window-x="0"
     inkscape:window-y="0"
     inkscape:window-maximized="1"
     inkscape:snap-others="false"
     inkscape:snap-page="true"
     inkscape:snap-to-guides="false">
    <inkscape:grid
       type="xygrid"
       id="grid1069"
       visible="false" />
  </sodipodi:namedview>
  <metadata
     id="metadata5">
    <rdf:RDF>
      <cc:Work
         rdf:about="">
        <dc:format>image/svg+xml</dc:format>
        <dc:type
           rdf:resource="http://purl.org/dc/dcmitype/StillImage" />
        <dc:title />
      </cc:Work>
    </rdf:RDF>
  </metadata>
  <g
     inkscape:label="Layer 1"
     inkscape:groupmode="layer"
     id="layer1">
    <rect
       style="opacity:1;vector-effect:none;fill:none;fill-opacity:1;fill-rule:evenodd;stroke:#000000;stroke-width:1.07646;stroke-linecap:butt;stroke-linejoin:miter;stroke-miterlimit:4;stroke-dasharray:none;stroke-dashoffset:0;stroke-opacity:1"
       id="rect2595"
       width="142.875"
       height="201.08333"
       x="2.6458333"
       y="5.2916665"
       ry="4.0216665" />
    <rect
       style="opacity:1;vector-effect:none;fill:#ffffff;fill-opacity:1;fill-rule:evenodd;stroke:#000000;stroke-width:0.318326;stroke-linecap:butt;stroke-linejoin:miter;stroke-miterlimit:4;stroke-dasharray:none;stroke-dashoffset:0;stroke-opacity:1"
       id="rect59"
       width="41.382492"
       height="58.208332"
       x="100.54166"
       y="26.458334"
       ry="2.6458328" />
    <g
       aria-label="Mut  "
       id="text25"
       style="font-size:5.54739px;line-height:1.25;font-family:'COCOGOOSE LETTERPRESS';-inkscape-font-specification:'COCOGOOSE LETTERPRESS';letter-spacing:0px;word-spacing:0px;stroke-width:0.297174"
       transform="translate(3.6442375,25.019365)">
      <path
         d="m 18.081768,10.127974 q 0.108175,0.296785 0.20248,0.607439 0.09708,0.310654 0.188611,0.624081 0.09153,0.313428 0.183064,0.629629 0.09153,0.313428 0.191385,0.618534 0.03883,-0.0527 0.05825,-0.122043 0.02219,-0.07212 0.03883,-0.144232 0.01941,-0.07489 0.04438,-0.141458 0.02496,-0.06934 0.07489,-0.110948 -0.01109,-0.0527 -0.0083,-0.110948 0.0055,-0.06102 0.02219,-0.113721 0.01664,-0.05547 0.04438,-0.09985 0.02774,-0.04715 0.06379,-0.07489 -0.0055,-0.102627 0.01942,-0.213575 0.02496,-0.110947 0.05547,-0.213574 0.03051,-0.102627 0.06102,-0.199706 0.03051,-0.09985 0.06102,-0.196932 0.02774,-0.09985 0.05547,-0.199706 0.03051,-0.102627 0.06379,-0.199706 0.03328,-0.09985 0.07489,-0.188612 0.04161,-0.08876 0.09708,-0.163648 0.12759,-0.01942 0.285691,-0.01664 0.158101,0.0028 0.310654,0.0028 0.06657,0 0.149779,-0.0028 0.08321,-0.0055 0.160875,-0.0028 0.08044,0.0028 0.144232,0.01664 0.06657,0.01387 0.09708,0.04993 0.02496,0.02774 0.03883,0.09153 0.01387,0.06102 0.01942,0.135911 0.0083,0.07212 0.01109,0.144232 0.0028,0.07212 0.0083,0.116495 0.06657,0.782182 0.152553,1.542175 0.08598,0.757219 0.166421,1.519985 0.01387,0.124816 0.02496,0.252406 0.01387,0.124816 -0.02496,0.235764 -0.04438,0.02774 -0.1054,0.03883 -0.05825,0.01109 -0.12759,0.01109 -0.06934,0.0028 -0.144232,-0.0028 -0.07212,-0.0028 -0.141459,-0.0028 -0.07212,0 -0.144232,0.0028 -0.06934,0.0028 -0.135911,0 -0.06657,0 -0.124816,-0.0111 -0.05825,-0.01109 -0.09985,-0.03606 -0.05547,-0.191385 -0.07766,-0.402186 -0.02219,-0.210801 -0.04438,-0.424375 -0.03606,-0.324522 -0.0638,-0.63795 -0.02774,-0.313428 -0.05825,-0.601892 -0.02774,0.02496 -0.04161,0.05825 -0.01387,0.03051 -0.02219,0.06657 -0.0083,0.03328 -0.01664,0.06934 -0.0055,0.03328 -0.01387,0.06657 -0.09153,0.324522 -0.188611,0.660139 -0.09708,0.335617 -0.194159,0.685103 -0.03606,0.130363 -0.08044,0.257953 -0.04438,0.12759 -0.119269,0.232991 -0.09153,0.0083 -0.199706,0.01387 -0.108174,0.0055 -0.219122,0.0055 -0.110947,0 -0.219122,-0.0055 -0.108174,-0.0055 -0.202479,-0.01387 -0.04438,-0.0527 -0.07212,-0.113722 -0.02496,-0.06102 -0.04438,-0.124816 -0.01941,-0.06657 -0.03328,-0.133138 -0.01387,-0.06657 -0.03328,-0.133137 -0.113722,-0.388317 -0.235764,-0.790503 -0.122043,-0.402186 -0.221896,-0.801598 -0.05547,0.377223 -0.1054,0.782182 -0.04715,0.40496 -0.09431,0.809919 -0.0083,0.0638 -0.0111,0.12759 0,0.06379 -0.0083,0.12759 -0.0055,0.06379 -0.02219,0.124816 -0.01387,0.05825 -0.04993,0.110948 -0.09985,0.01942 -0.230217,0.02774 -0.130363,0.01109 -0.269048,0.01109 -0.135911,0 -0.266275,-0.01109 -0.130363,-0.0083 -0.230216,-0.02774 -0.03051,-0.05825 -0.03606,-0.119269 -0.0055,-0.06102 0,-0.122042 0.0055,-0.0638 0.01664,-0.12759 0.01387,-0.06379 0.01942,-0.122043 0.08598,-0.779408 0.163648,-1.575459 0.07766,-0.79605 0.1581,-1.578232 0.0055,-0.05825 0.0055,-0.119269 0.0028,-0.06102 0.01109,-0.122043 0.0083,-0.06102 0.02774,-0.113721 0.02219,-0.05547 0.06379,-0.102627 0.130364,-0.0055 0.280144,-0.0111 0.149779,-0.0083 0.302332,-0.0083 0.152554,-0.0028 0.296786,0.0055 0.144232,0.0083 0.266274,0.02774 z m 1.958229,0.826561 q 0.03606,-0.06934 0.0527,-0.144232 0.01664,-0.07766 0.02774,-0.155327 0.0111,-0.08044 0.02496,-0.158101 0.01664,-0.08044 0.04993,-0.152553 -0.02496,-0.0028 -0.05825,-0.0055 -0.03328,-0.0055 -0.06657,-0.0055 -0.03328,-0.0028 -0.06102,0.0055 -0.02774,0.0055 -0.04438,0.02219 0.0111,0.02496 0.02774,0.03051 0.01664,0.0055 0.03328,0.0055 0.01941,0 0.03883,0.0028 0.01942,0.0028 0.03606,0.02219 0.0028,0.04993 -0.01387,0.08044 -0.01664,0.03051 -0.04438,0.0527 -0.02496,0.01942 -0.05825,0.03328 -0.03328,0.01387 -0.06657,0.03051 0,0.01109 -0.0055,0.03051 -0.0055,0.01664 -0.0111,0.03606 -0.0028,0.01664 0,0.03329 0.0028,0.01387 0.01664,0.02219 0.01387,-0.05825 0.04715,-0.09153 0.03606,-0.03328 0.108174,-0.03051 0,0.01109 0.0055,0.01387 0.0083,0.0028 0.0083,0.01664 -0.01942,0.07489 -0.03883,0.144233 -0.01942,0.06934 -0.08321,0.09985 0.0055,0.0055 0.01387,0.0083 0.0083,0.0028 0.01664,0.0055 0.0083,0.0028 0.01387,0.01109 0.0055,0.0055 0.0028,0.02219 l -0.0083,0.01387 0.0083,0.01664 q -0.02496,0.02219 -0.03606,0.0527 -0.0083,0.03051 -0.0111,0.06934 l -0.02496,-0.0055 0.0111,0.02219 q -0.0083,0.02774 -0.02496,0.08321 -0.01664,0.0527 -0.02496,0.110947 -0.0055,0.05547 0.0055,0.102627 0.01109,0.04438 0.05825,0.0527 -0.0083,-0.02496 -0.0083,-0.06657 0.0028,-0.04161 0.0083,-0.08876 0.0055,-0.04993 0.0111,-0.09708 0.0055,-0.04715 0.0028,-0.08321 l 0.02496,0.0083 -0.0083,-0.02219 q 0.0111,-0.0055 0.01387,-0.02219 0.0028,-0.01664 0.0028,-0.03606 0,-0.02219 -0.0028,-0.04161 -0.0028,-0.02219 0.0028,-0.03883 l 0.02219,0.0083 z m -0.183064,-0.410507 q 0.01942,0.0055 0.03051,-0.0055 0.01387,-0.0111 0.01664,-0.02774 0.0055,-0.01942 0,-0.03606 -0.0055,-0.01942 -0.01664,-0.02496 -0.01109,0.02219 -0.02496,0.03883 -0.01387,0.01387 -0.0055,0.05547 z m 0.460434,0.183064 h 0.03051 v -0.03051 h -0.03051 z m -0.06102,0.213574 q 0.02219,-0.02496 0.01942,-0.04715 0,-0.02219 -0.0111,-0.04438 -0.01109,-0.02496 -0.02496,-0.04993 -0.01387,-0.02774 -0.01664,-0.05825 -0.03328,0.04715 -0.02219,0.108174 0.01387,0.06102 0.05547,0.09153 z m 0.288465,0.03051 q 0.09153,0.0083 0.09431,-0.06102 -0.03328,0.0028 -0.04438,-0.0083 -0.0111,-0.0111 -0.01387,-0.02774 -0.0028,-0.01664 0,-0.03606 0.0028,-0.02219 0,-0.03883 -0.0028,-0.01664 -0.01664,-0.02496 -0.01109,-0.0083 -0.04715,-0.0028 0.0083,0.01942 0.01109,0.04715 0.0028,0.02496 0.0028,0.0527 0,0.02774 0.0028,0.05547 0.0028,0.02496 0.01109,0.04438 z M 17.5936,10.954536 q 0.01664,0.0083 0.02496,-0.0055 0.0111,-0.01387 0.0111,-0.03051 0,-0.01942 -0.0111,-0.03328 -0.0083,-0.01387 -0.02496,-0.0055 z m 0.305107,0.06102 q -0.0055,0.01664 -0.0028,0.02496 0.0055,0.0055 0.01664,0.0083 0.0111,0 0.02219,0 0.01387,-0.0028 0.02496,0 v -0.04715 q -0.02219,-0.0028 -0.03051,0.0083 -0.0083,0.0083 -0.03051,0.0055 z m 1.758522,0.108174 q 0.0083,-0.0083 0.01387,-0.02774 0.0055,-0.02219 0.0028,-0.03883 0,-0.01942 -0.01109,-0.03051 -0.0111,-0.01387 -0.03328,-0.01109 -0.01664,0.01109 -0.02496,0.03051 -0.0055,0.01942 -0.0028,0.03606 0.0028,0.01664 0.01664,0.03051 0.01387,0.0111 0.03883,0.0111 z m 0.612987,-0.07489 q -0.0028,-0.0028 -0.01387,-0.0083 -0.0083,-0.0055 -0.01942,-0.0083 -0.01109,-0.0028 -0.01941,0 -0.0083,0.0028 -0.0083,0.01664 0.01109,-0.0055 0.01942,0 0.01109,0.0055 0.01942,0.01109 0.0083,0.0055 0.01387,0.0055 0.0055,0 0.0083,-0.01664 z m 0.38277,0.135912 q -0.0055,-0.02219 -0.0111,-0.04161 -0.0055,-0.02219 -0.03606,-0.01942 -0.02219,0.02219 -0.0083,0.04715 0.01664,0.02496 0.05547,0.01387 z m -0.934736,0.138684 q -0.0055,0.01664 -0.01387,0.01942 -0.0055,0.0028 -0.01387,0.0028 -0.0083,-0.0028 -0.01664,-0.0028 -0.0083,0 -0.01664,0.01109 0.01942,0.0028 0.01664,0.03051 0.02774,-0.0028 0.04161,-0.01942 0.01664,-0.01664 0.02496,-0.03606 0.0083,-0.02219 0.01387,-0.04715 0.0055,-0.02496 0.0111,-0.04993 -0.03051,-0.02496 -0.07489,-0.01664 -0.0083,0.02496 -0.0055,0.03883 0.0055,0.01109 0.0111,0.02219 0.0083,0.0083 0.01387,0.01942 0.0083,0.01109 0.0083,0.02774 z m -1.819543,0.06102 q -0.0055,-0.03606 -0.02496,-0.05825 -0.01942,-0.02219 -0.01942,-0.06379 -0.01109,0.0028 -0.02774,0 -0.01664,-0.0028 -0.03051,-0.0028 -0.0111,0 -0.01942,0.0083 -0.0055,0.0055 0,0.02496 0.0416,0.01387 0.06379,0.04161 0.02496,0.02774 0.05825,0.04993 z m 2.218956,0.09153 q -0.0028,-0.01387 0.0055,-0.03051 0.01109,-0.01942 0.01942,-0.03329 0.0083,-0.01664 0.0055,-0.02774 -0.0028,-0.0111 -0.03051,-0.01387 0,0.0083 -0.0055,0.02496 -0.0055,0.01387 -0.0111,0.03051 -0.0028,0.01664 -0.0028,0.03051 0.0028,0.01387 0.01942,0.01942 z m -0.35226,0.169196 q 0.02219,-0.01942 0.04161,-0.02496 0.01942,-0.0083 0.03606,-0.0083 0.01942,0 0.03606,0.0028 0.01942,0 0.03883,0 v -0.06102 q -0.03328,0.0028 -0.05547,-0.0083 -0.01942,-0.01387 -0.03606,-0.03051 -0.01387,-0.01664 -0.03051,-0.03328 -0.01664,-0.01664 -0.04438,-0.02219 -0.01109,0.01664 -0.01387,0.04161 0,0.02219 0.0028,0.04715 0.0055,0.02496 0.01109,0.0527 0.0083,0.02496 0.01387,0.04438 z m 0.45766,-0.124816 q 0.03328,0.02496 0.07766,0.01664 0.0055,-0.03606 -0.0083,-0.04993 -0.01387,-0.01387 -0.03606,-0.02774 0.0028,0.01664 -0.0028,0.02496 -0.0028,0.0083 -0.01109,0.01387 -0.0055,0.0028 -0.01387,0.0083 -0.0055,0.0028 -0.0055,0.01387 z m 0.138685,0.429922 q -0.0083,-0.03328 -0.01942,-0.06657 -0.0111,-0.03328 -0.01664,-0.06379 -0.0028,-0.03329 0,-0.0638 0.0028,-0.03328 0.02219,-0.06657 -0.01664,-0.0028 -0.02496,-0.01387 -0.0055,-0.0111 -0.02219,-0.01664 -0.01664,0.03606 -0.02219,0.08876 -0.0055,0.0527 0,0.09985 0.0083,0.04438 0.02774,0.07766 0.01942,0.03051 0.05547,0.02496 z m -0.887583,-0.07489 q 0.01942,0.0028 0.03606,-0.01664 0.01664,-0.01941 0.02219,-0.04438 0.0083,-0.02774 0.0028,-0.04993 -0.0055,-0.02496 -0.02774,-0.02774 -0.0055,0.02219 -0.01664,0.03606 -0.0083,0.01387 -0.01664,0.02774 -0.0083,0.01387 -0.01109,0.03051 0,0.01664 0.01109,0.04438 z m 0.321749,-0.09431 q -0.02496,-0.0028 -0.03883,0.0055 -0.01109,0.0055 -0.01942,0.01942 -0.0083,0.0111 -0.01664,0.02774 -0.0055,0.01387 -0.01664,0.02496 0.03328,-0.01664 0.0527,-0.02219 0.02219,-0.0055 0.03606,-0.0055 0.01387,0 0.01942,0.0055 l 0.03051,-0.0083 q 0.03328,0.01387 0.03883,0.0111 0.0055,-0.0055 0.0055,-0.0111 -0.02774,0 -0.04993,-0.01109 -0.01109,-0.0055 -0.01387,-0.01387 l -0.02774,0.01109 q -0.0055,0.0028 -0.0055,0 -0.0028,-0.0028 0.0055,-0.03328 z m -1.974871,0.06102 q 0.01109,0 0.02219,0.0028 0.01387,0 0.02496,0 0.0111,-0.0028 0.01664,-0.0083 0.0055,-0.0055 0,-0.02219 -0.04715,0 -0.06379,0.02774 z m 2.845811,0.122043 q 0.03328,-0.01387 0.0527,-0.03883 0.01942,-0.02496 0.04161,-0.04993 -0.01109,-0.01109 -0.03051,-0.01387 -0.01664,-0.0055 -0.03606,-0.0055 -0.01942,-0.0028 -0.03606,-0.0055 -0.01387,-0.0055 -0.01942,-0.02219 0.0028,0.03883 0.01942,0.06657 0.01664,0.02496 0.0083,0.06934 z m -3.68624,-0.06102 q 0.01387,0.0028 0.01941,0.01387 0.0083,0.0083 0.02774,0.0028 0,-0.01387 0.0055,-0.01664 0.0055,-0.0028 0.0083,-0.01387 -0.01387,0 -0.01664,-0.01387 0,-0.01387 -0.01387,-0.01664 -0.0028,0.01664 -0.01387,0.02496 -0.0111,0.0055 -0.01664,0.01942 z m 1.317505,0.09431 q -0.03329,0 -0.06102,-0.0055 -0.02496,-0.0083 -0.04993,-0.01387 -0.02496,-0.0083 -0.05547,-0.0111 -0.02774,-0.0055 -0.06379,-0.0028 0.0028,0.03606 0.03328,0.05547 0.03051,0.01664 0.06934,0.01942 0.04161,0.0028 0.07766,-0.0083 0.03606,-0.01109 0.04993,-0.03328 z m 0.09153,0.02774 q 0.0083,-0.01387 0.0028,-0.02496 -0.0055,-0.01387 -0.01664,-0.01664 -0.0083,-0.0055 -0.01942,-0.0028 -0.0111,0.0028 -0.01387,0.01664 0.02219,-0.0055 0.02774,0.0083 0.0055,0.01387 0.01942,0.01942 z m 2.171803,0.09431 h 0.03051 v -0.03051 h -0.03051 z m -0.826561,0.07489 q 0.01664,0.0083 0.02496,0 0.0083,-0.0083 0.0083,-0.02219 0,-0.01387 -0.0083,-0.02219 -0.0083,-0.0083 -0.02496,0 0,0.02774 -0.0111,0.04438 -0.0055,0.0083 -0.0111,0.0083 l 0.0055,0.02219 h -0.02774 l -0.01942,-0.02219 -0.02774,0.0083 q -0.0055,-0.01387 -0.01664,-0.02219 -0.0083,-0.0083 -0.03051,-0.0083 0,0.04715 0.04715,0.04438 l 0.0083,0.02219 0.02219,-0.0055 q -0.0028,0.03051 0,0.0527 0.0055,0.01941 0.03051,0.02496 0.0111,-0.01387 0.01664,-0.02219 0.0055,-0.0083 0.0055,-0.01664 0,-0.0083 -0.0028,-0.01942 -0.0028,-0.01387 -0.0055,-0.03606 l 0.02496,-0.0055 z m 0.551965,0.03051 q 0.04161,-0.0028 0.04438,0.02219 0.0028,0.02219 -0.0055,0.0527 -0.0083,0.03051 -0.01387,0.06379 -0.0055,0.03051 0.01942,0.04438 0.0111,-0.03051 0.04715,-0.04438 -0.0083,-0.03606 -0.0111,-0.06657 0,-0.03051 -0.0028,-0.05547 -0.0028,-0.02496 -0.01387,-0.04438 -0.0083,-0.01942 -0.03328,-0.03328 0.0083,0.03051 -0.0111,0.03606 -0.01942,0.0055 -0.01942,0.02496 z m -0.995757,0.06102 q 0.03051,0 0.0527,-0.0055 0.02496,-0.0055 0.02496,-0.03883 -0.03883,-0.0055 -0.0527,0.0111 -0.01387,0.01387 -0.02496,0.03328 z m 1.348016,0.06102 q 0.0055,-0.02219 0.01942,-0.03883 0.01387,-0.01664 0.02496,-0.03606 -0.04715,0.0028 -0.07766,-0.01387 0.0028,0.03051 0.0083,0.0527 0.0083,0.02219 0.02496,0.03606 z m -0.995756,0.122042 v -0.06102 h -0.04715 q 0.0055,0.02219 0.0111,0.04438 0.0055,0.02219 0.03606,0.01664 z m 1.087288,0.03328 q -0.0055,-0.03328 -0.01942,-0.05825 -0.0111,-0.02496 -0.05825,-0.01942 0.01109,0.06657 0.07766,0.07766 z m -1.45619,0.166421 q 0.01664,-0.04438 0.06379,-0.06102 -0.0083,-0.01109 -0.0111,-0.02774 0,-0.01942 -0.0028,-0.03606 -0.0028,-0.01664 -0.01109,-0.02774 -0.0055,-0.0111 -0.02219,-0.01387 -0.06934,0.03883 -0.06102,0.166421 h 0.03051 l -0.0083,0.02219 0.02219,0.0083 q -0.0111,0.02496 -0.0055,0.04438 0.0083,0.01664 0.02219,0.03328 0.01387,0.01664 0.02774,0.03606 0.01387,0.01664 0.01942,0.03883 0.0083,-0.102627 -0.04715,-0.152553 l 0.0083,-0.02219 z m -2.263335,0.01664 q -0.0111,-0.02774 -0.01942,-0.04438 -0.0083,-0.01942 -0.02219,-0.02774 -0.01387,-0.01109 -0.03606,-0.01109 -0.02219,-0.0028 -0.06102,0.0055 0.0028,0.05825 0.04161,0.09153 0.03883,0.03051 0.09708,0 l 0.02219,0.0083 0.02496,-0.0083 v 0.01664 q 0.02774,0.01387 0.05547,0.02774 0.03051,0.0111 0.06657,0.01942 0.0055,-0.03051 0.0055,-0.06657 0,-0.03883 0.04161,-0.05825 -0.04161,-0.03883 -0.122042,-0.03051 -0.0055,0.02774 -0.01664,0.04993 -0.0083,0.01942 -0.03051,0.02774 l -0.02496,-0.0083 z m 3.794415,-0.03051 q 0.02219,0 0.03051,-0.0083 0.01109,-0.0083 0.01664,-0.02219 -0.03328,0 -0.04715,0.03051 z m -3.395003,0.01387 q -0.02219,0.0055 -0.03606,0.0028 -0.01387,-0.0055 -0.02774,-0.0083 -0.0111,-0.0055 -0.02496,-0.0083 -0.01387,-0.0028 -0.03328,0 -0.0028,0.01664 0.0028,0.02774 0.0055,0.0111 0.0111,0.02219 0.0083,0.01109 0.0111,0.02496 0.0055,0.01109 0.0028,0.03328 0.01941,0 0.02774,-0.01109 0.01109,-0.0111 0.01664,-0.02219 0.0083,-0.01387 0.01664,-0.02219 0.0111,-0.01109 0.03328,-0.0083 l 0.0055,0.02496 0.0083,-0.02496 q 0.01109,0.0028 0.01387,0.01387 0.0028,0.0111 0.0028,0.02219 0.0028,0.0111 0.0083,0.02219 0.0055,0.0083 0.02219,0.0055 0.0028,-0.01942 0.01664,-0.02496 0.01387,-0.0083 0.02774,-0.01387 0.01664,-0.0055 0.02774,-0.01664 0.01109,-0.01109 0.0028,-0.03883 h -0.122042 v 0.01664 l -0.0083,-0.0083 z m 2.906833,0 q -0.0055,0.01664 -0.0028,0.02496 0.0055,0.0055 0.01664,0.0083 0.0111,0 0.02219,0 0.01387,-0.0028 0.02496,-0.0028 v -0.04438 q -0.03883,-0.0028 -0.06102,0.01387 z m -1.592101,0.169196 q -0.01387,-0.03328 -0.03883,-0.03051 -0.02219,0 -0.04993,0.01387 -0.02496,0.01109 -0.04993,0.01942 -0.02496,0.0055 -0.04438,-0.01664 -0.0055,-0.02219 -0.0028,-0.03051 0.0055,-0.01109 0.01387,-0.01942 0.0083,-0.0083 0.01387,-0.01664 0.0083,-0.0083 0.0055,-0.02774 -0.03051,0.0055 -0.04993,0.01664 -0.01664,0.01109 -0.03606,0.01942 -0.01664,0.0055 -0.03883,0.0083 -0.02219,0 -0.05825,-0.0111 -0.01387,0.01387 -0.01664,0.03883 -0.0028,0.02219 0,0.04993 0.04161,-0.0028 0.07212,-0.0028 0.03328,-0.0028 0.06102,0.0028 0.02774,0.0028 0.0527,0.0111 0.02774,0.0083 0.06102,0.02219 0.02219,-0.01109 0.04438,-0.03328 0.02219,-0.02219 0.04438,0 l 0.0083,0.02496 0.02496,-0.0083 q 0.0028,0.0083 0,0.02219 -0.0028,0.01387 -0.0055,0.02774 0,0.0111 0.0028,0.01942 0.0028,0.0083 0.01664,0.0083 0.0055,-0.02219 0.01942,-0.03328 0.01387,-0.01387 0.0111,-0.04438 -0.03051,0 -0.03606,-0.01109 -0.0055,-0.0055 -0.0028,-0.0111 z m 0.782182,0.04715 q 0.01942,0.0028 0.03051,-0.01109 0.0111,-0.01664 0.01387,-0.03883 0.0055,-0.02219 0,-0.04161 -0.0055,-0.02219 -0.01664,-0.03051 0,0.01942 -0.0083,0.03051 -0.0055,0.01109 -0.0111,0.02496 -0.0055,0.0111 -0.01109,0.02774 -0.0028,0.01387 0.0028,0.03883 z m 0.701744,0.02774 q 0.0028,-0.01942 0.0083,-0.04161 0.0055,-0.02219 0.0055,-0.0416 0.0028,-0.02219 -0.0028,-0.03883 -0.0055,-0.01942 -0.02496,-0.02774 v 0.149779 l 0.0055,0.01664 0.0083,0.01664 q -0.01942,0.0055 -0.01109,0.01387 0.01109,0.0055 0.02496,0.0083 0.01387,0.0028 0.01942,0 0.0055,-0.0055 -0.01942,-0.02219 l 0.01109,-0.02496 z m -1.223199,-0.07489 q -0.0083,-0.0083 -0.02774,-0.01109 -0.01942,-0.0055 -0.04438,-0.0055 -0.02219,-0.0028 -0.04161,0.0028 -0.01942,0.0028 -0.02496,0.01387 0.01942,-0.0055 0.03883,0 0.01942,0.0055 0.03606,0.01387 0.01942,0.0055 0.03328,0.0055 0.01664,-0.0028 0.03051,-0.01942 z m -1.730786,0.09153 v -0.09153 h -0.04438 q -0.01387,0.01387 -0.01664,0.03051 0,0.01664 0.0055,0.03051 0.0083,0.01387 0.02219,0.02496 0.01387,0.0083 0.03328,0.0055 z m 3.336755,0.03051 q 0.0055,-0.02219 0,-0.03051 -0.0028,-0.0111 -0.01109,-0.01664 -0.0083,-0.0083 -0.01664,-0.01664 -0.0055,-0.0083 -0.0028,-0.02774 -0.02774,0.02219 -0.04993,0.02496 -0.01942,0 -0.03883,-0.0083 -0.01664,-0.0083 -0.03606,-0.02219 -0.01664,-0.01664 -0.04161,-0.02496 0.0028,0.04715 0.01942,0.06934 0.01664,0.02219 0.0416,0.03328 0.02774,0.0083 0.06102,0.01109 0.03328,0 0.07489,0.0083 z m 0.230217,-0.07489 q 0.0055,-0.0527 -0.04715,-0.04715 -0.0028,0.04715 0.04715,0.04715 z m -1.775165,0.183063 q 0.02774,-0.0083 0.03883,-0.02774 0.01387,-0.02219 0.0111,-0.0416 0,-0.02219 -0.01387,-0.04161 -0.01109,-0.01942 -0.03606,-0.02774 0.0055,0.02219 0.0055,0.03606 0,0.01387 -0.0028,0.02774 0,0.01109 -0.0028,0.03051 0,0.01664 0,0.04438 z m 0.260728,-0.06102 q 0.01387,0.01387 0.03883,0.01664 0.02774,0.0028 0.05547,-0.0028 0.03051,-0.0083 0.05547,-0.02219 0.02496,-0.01387 0.03328,-0.03883 -0.05547,0.0055 -0.1054,0.0111 -0.04993,0.0055 -0.07766,0.03606 z m 1.314731,-0.01664 q 0,0.01664 0.0055,0.02774 0.0083,0.01109 0.01664,0.02219 0.0083,0.0083 0.01109,0.02219 0.0055,0.0111 -0.0028,0.03606 0.03606,0.0055 0.05547,-0.0055 0.01941,-0.01387 0.03051,-0.03051 0.01387,-0.01664 0.02774,-0.03328 0.01387,-0.01664 0.03883,-0.02219 0.02219,0.0083 0.03883,0.02219 0.01664,0.01109 0.03328,0.02496 0.01664,0.01387 0.03606,0.02774 0.01942,0.0111 0.04715,0.01664 -0.01664,-0.04993 -0.05547,-0.08044 -0.03883,-0.03051 -0.08599,-0.04161 -0.04715,-0.01387 -0.09985,-0.0083 -0.0527,0.0028 -0.09708,0.02219 z M 20.39503,13.14298 q 0.01387,-0.01942 0.02774,-0.03883 0.01387,-0.01942 0.04715,-0.02219 -0.01387,-0.06657 -0.07489,-0.07489 -0.0028,0.0111 -0.0083,0.03051 -0.0055,0.01942 -0.0083,0.04161 -0.0028,0.01942 0,0.03883 0.0028,0.01664 0.01664,0.02496 z m -1.852828,0.03051 q 0,-0.04161 0.02219,-0.05825 0.02496,-0.01664 0.03883,-0.04715 -0.02219,0.0083 -0.02774,0 -0.0028,-0.01109 -0.0028,-0.02219 0,-0.01387 -0.0055,-0.02219 -0.0028,-0.01109 -0.02496,-0.0028 0.0083,0.02496 0.0028,0.04715 -0.0028,0.02219 -0.0083,0.04438 -0.0055,0.01942 -0.0083,0.03606 0,0.01387 0.01387,0.02496 z m -1.286995,0.01664 q -0.06657,-0.0055 -0.113721,-0.03328 -0.04438,-0.02774 -0.09985,-0.04438 -0.0055,0.04161 0.01942,0.06934 0.02496,0.02496 0.05825,0.03328 0.03606,0.0083 0.07489,0.0028 0.03883,-0.0055 0.06102,-0.02774 z m 2.083045,-0.01664 q 0.02219,0.0055 0.03051,-0.0055 0.0083,-0.01109 0.03051,-0.0083 0.0028,-0.03328 -0.02219,-0.03883 -0.02496,-0.0055 -0.05547,-0.0083 0,0.04715 0.01664,0.06102 z m -0.199706,0.01664 q 0,-0.01942 0.01387,-0.01664 0,-0.01387 -0.0055,-0.02496 -0.0028,-0.0111 -0.02219,-0.0055 0,0.01387 0,0.03051 0,0.01387 0.01387,0.01664 z m 1.592101,0.09153 q 0.0083,-0.01664 -0.0028,-0.02496 -0.01109,-0.0083 -0.02774,-0.0083 -0.01664,-0.0028 -0.03328,0.0028 -0.01387,0.0055 -0.01387,0.01664 0.01387,0.0083 0.03051,0.01387 0.01942,0.0055 0.04715,0 z m -1.700275,0.03051 h 0.03328 v -0.03051 h -0.03328 z m 1.256484,0.04438 q 0.03328,-0.0055 0.06379,-0.0083 0.03051,-0.0055 0.04438,-0.03606 -0.03051,-0.0055 -0.0527,-0.01387 -0.01942,-0.0083 -0.05547,-0.0028 z M 20.8832,13.4037 v -0.04715 q -0.01942,0.0028 -0.03883,0.0028 -0.01942,-0.0028 -0.02219,0.01387 0.01387,0.0055 0.01942,0.01664 0.0083,0.01109 0.02496,0.01387 l -0.0055,0.01387 0.0055,0.01664 q 0.01664,0.06102 -0.04438,0.04438 0,0.03883 0.0111,0.06657 0.0111,0.02496 0.0028,0.07212 H 20.7917 L 20.8,13.59512 20.77504,13.58682 q -0.01387,-0.0028 -0.01387,-0.01664 0,-0.01387 -0.01664,-0.01387 0.0028,0.01942 0,0.03883 0,0.01942 0.01664,0.02219 l 0.0055,0.02219 0.02496,-0.0055 v 0.06102 q 0.04161,-0.01109 0.06379,-0.03883 0.02219,-0.03051 0.03051,-0.06657 0.0083,-0.03883 0.0055,-0.08044 -0.0028,-0.04161 -0.0083,-0.07489 l 0.0055,-0.01664 z m -0.366127,0.01387 q 0,-0.03606 -0.03328,-0.04438 0,0.03606 0.03328,0.04438 z m -1.164952,0.04715 q 0.01387,0.0028 0.01942,0.01109 0.0083,0.0083 0.02774,0.0028 0,-0.03328 -0.03051,-0.04438 0,0.01387 -0.0083,0.01942 -0.0055,0.0028 -0.0083,0.0111 z m -0.321749,0.260727 q -0.0028,-0.03883 -0.01664,-0.06657 -0.01387,-0.02774 -0.05825,-0.02496 -0.01387,0.09431 0.07489,0.09153 z m 1.392395,0.230217 q -0.05547,0.0083 -0.0527,0.01109 0.0028,0 0.02219,-0.0028 0.02219,-0.0028 0.03883,-0.0055 0.01664,-0.0028 -0.0083,-0.0028 z m -0.418828,-3.001138 q 0.0083,0.0055 0.01387,0.01387 0.0083,0.0055 0.01664,0.01109 z m 0,0.177516 q -0.01664,-0.01664 -0.03328,-0.02219 -0.01387,-0.0083 -0.03051,-0.02219 z m -0.18029,0.671234 q -0.0055,0.02219 -0.0111,0.03328 z m -0.110948,0.399413 q 0.0083,0.0055 0.01387,0.0083 0.0083,0.0028 0.01664,0.0083 z m -0.06102,0.04438 q 0.0055,-0.0083 0.0083,-0.01942 0.0055,-0.01109 0.01109,-0.02496 z m -0.399412,0.443791 q 0.02219,-0.0028 0.04715,-0.01387 z m -2.218956,0.01664 v -0.03051 z m 0.38277,-0.03051 v 0.04715 z m 1.300863,0.199706 q 0.0055,-0.01109 0.01387,-0.01664 0.0083,-0.0083 0.01664,-0.01387 z m 1.483926,0.0527 q 0.0083,0 0.01664,-0.0028 0.0083,-0.0028 0.01664,-0.0055 z m 0.66014,0.48817 h 0.02774 z m -0.09431,0.221896 q 0.0055,-0.01387 0.01387,-0.02219 0.01109,-0.01109 0.01942,-0.02219 z"
         style="stroke-width:0.297174"
         id="path1515" />
      <path
         d="m 25.207384,10.951761 q -0.01664,0.199706 -0.01664,0.443791 0.0028,0.241312 0.0083,0.499265 0.0083,0.25518 0.0111,0.513134 0.0055,0.257954 -0.0028,0.485397 -0.0028,0.04715 -0.01664,0.09431 -0.01387,0.04715 -0.01387,0.08876 0,0.04715 0.01387,0.09153 0.01664,0.04438 0.01664,0.09153 0,0.105401 -0.01942,0.196933 -0.01664,0.08876 -0.01109,0.185837 0.0028,0.06934 0.01109,0.14978 0.01109,0.07766 0.01109,0.152553 0.0028,0.07489 -0.01109,0.141458 -0.01387,0.06657 -0.05547,0.108175 -0.03883,0.03606 -0.135911,0.06102 -0.09708,0.02496 -0.2108,0.03051 -0.113722,0.0083 -0.22467,-0.0055 -0.108174,-0.01387 -0.166421,-0.05547 -0.04715,-0.03328 -0.07212,-0.08876 -0.02496,-0.05547 -0.03883,-0.119269 -0.01387,-0.06657 -0.02496,-0.133137 -0.01109,-0.06934 -0.03051,-0.133138 -0.04438,0.04438 -0.07766,0.09153 -0.03328,0.04438 -0.06657,0.08876 -0.03328,0.04161 -0.06934,0.08321 -0.03328,0.03883 -0.07766,0.07212 -0.144232,0.113722 -0.349486,0.180291 -0.202479,0.06934 -0.460433,0.04993 -0.147006,-0.01109 -0.280143,-0.04993 -0.133138,-0.03883 -0.252407,-0.09985 -0.119268,-0.06379 -0.221895,-0.144233 -0.09985,-0.08321 -0.18029,-0.18029 -0.124817,-0.149779 -0.208027,-0.335617 -0.08321,-0.188611 -0.12759,-0.399412 -0.04161,-0.213574 -0.04438,-0.446565 -0.0028,-0.23299 0.03051,-0.471528 -0.01109,-0.08321 -0.01942,-0.18029 -0.0083,-0.09985 -0.01387,-0.205254 -0.0028,-0.108174 -0.0055,-0.219121 0,-0.113722 0.0055,-0.221896 0.0055,-0.163648 0.0083,-0.318975 0.0055,-0.158101 0.0527,-0.274596 0.03883,-0.01109 0.06102,-0.01942 0.02219,-0.0083 0.04161,-0.01664 0.01942,-0.0083 0.03883,-0.01387 0.02219,-0.0055 0.05825,-0.01387 0.07489,-0.01387 0.188611,-0.02219 0.113722,-0.01109 0.227443,-0.01109 0.113722,0 0.210801,0.01109 0.09708,0.01109 0.138685,0.03883 0.03328,0.02219 0.0527,0.08876 0.01942,0.06657 0.02774,0.1581 0.0083,0.08876 0.0083,0.194159 0.0028,0.1054 0,0.208027 -0.0028,0.102627 -0.0083,0.194159 -0.0028,0.09153 -0.0028,0.152553 0,0.155327 -0.0083,0.316201 -0.0083,0.160874 -0.01109,0.316201 -0.0028,0.152554 0.0055,0.288465 0.0083,0.135911 0.04161,0.238537 0.02219,0.06657 0.07212,0.133138 0.0527,0.0638 0.113722,0.12759 0.02496,0.03051 0.0416,0.04993 0.01942,0.01664 0.04161,0.03051 0.02496,0.0111 0.05825,0.02219 0.03328,0.0083 0.08876,0.01942 0.224669,0.05825 0.427149,-0.06102 0.116495,-0.06657 0.177516,-0.147006 0.06102,-0.08321 0.08598,-0.191385 0.02496,-0.110948 0.02496,-0.25518 0.0028,-0.144232 0.0028,-0.33839 v -0.549192 q 0,-0.06657 -0.0055,-0.158101 -0.0028,-0.09153 -0.0055,-0.191385 -0.0028,-0.102626 0,-0.205253 0.0028,-0.1054 0.01664,-0.194159 0.01387,-0.08876 0.04161,-0.152553 0.02774,-0.06657 0.07489,-0.09431 0.03883,-0.02219 0.09153,-0.02219 0.05547,0 0.119269,0.0055 0.06657,0.0055 0.138685,0.01387 0.07489,0.0083 0.155327,0.0028 0.06102,-0.0028 0.113721,-0.01109 0.05547,-0.0083 0.102627,-0.0083 0.04993,-0.0028 0.09153,0.0028 0.04161,0.0055 0.07489,0.03051 0.02496,0.01942 0.04161,0.04438 0.01664,0.02496 0.02774,0.05547 0.0111,0.02774 0.02219,0.05825 0.01387,0.03051 0.03051,0.05825 z m -3.181428,0.105401 q 0,-0.02774 0.01387,-0.04161 0.01387,-0.01387 0.02774,-0.02774 0.01664,-0.01387 0.02774,-0.03051 0.0111,-0.01942 0.0055,-0.0527 -0.01387,-0.01387 -0.04715,-0.01387 -0.03051,0 -0.06102,0 -0.0055,0.02774 -0.0028,0.04993 0.0028,0.01942 0.0055,0.03883 0.0055,0.01664 0.0083,0.03606 0.0055,0.01942 0.0055,0.04161 l -0.02219,-0.0055 0.0055,0.02219 q 0,0.02219 -0.0028,0.05547 0,0.03328 0.0028,0.06102 0.0055,0.02774 0.01664,0.04161 0.0111,0.01109 0.03051,-0.0055 -0.0055,-0.01387 -0.01109,-0.05825 -0.0055,-0.04438 -0.0028,-0.0943 l 0.02219,-0.0083 z m 0.732255,-0.07766 q 0.0055,-0.04715 -0.01109,-0.06934 -0.01664,-0.02496 -0.06379,-0.01942 -0.0028,0.02219 0.0055,0.03606 0.0083,0.0111 0.01942,0.01942 0.01387,0.0083 0.02774,0.01664 0.01387,0.0055 0.02219,0.01664 z m 1.608744,-0.04438 q -0.02774,-0.01387 -0.04715,-0.03051 -0.01664,-0.01942 -0.06102,-0.01387 -0.0083,0.03606 0.0028,0.05825 0.01387,0.01942 0.03328,0.02774 0.02219,0.0055 0.04438,-0.0028 0.02219,-0.01109 0.02774,-0.03883 z m 0.596344,0.01664 v -0.06102 h -0.06379 q -0.0028,0.01664 0.0028,0.02774 0.0083,0.0083 0.01664,0.01387 0.0111,0.0055 0.01942,0.01387 0.0083,0.0055 0.0083,0.01942 l -0.0083,0.02219 0.02496,-0.0083 q 0.0055,0.06934 -0.04715,0.06102 -0.0055,0.02219 0,0.03329 0.0055,0.01109 0.01387,0.02219 0.0083,0.0083 0.01387,0.01942 0.0083,0.0111 0.0028,0.03328 -0.01942,-0.01387 -0.04715,-0.01387 0.0111,0.03883 0.02219,0.0638 0.01387,0.02219 0.02219,0.04715 0.0083,0.02219 0.0111,0.0527 0.0028,0.03051 -0.0083,0.08044 0.03051,-0.01942 0.03606,-0.04993 0.0083,-0.03051 0.0055,-0.0638 0,-0.03606 -0.0083,-0.06934 -0.0055,-0.03606 -0.0028,-0.06102 0.01664,0.0055 0.02219,0.01664 0.0083,0.01109 0.02496,0.01387 -0.0055,-0.02496 -0.0028,-0.05825 0.0055,-0.03606 0.0055,-0.06657 0,-0.03328 -0.0111,-0.0527 -0.0083,-0.02219 -0.03883,-0.02219 l 0.0083,-0.02219 z m -0.213575,-0.01664 h 0.02774 v -0.03051 h -0.02774 z m -2.340998,0.1054 q -0.02219,0.0055 -0.03328,-0.0055 -0.0083,-0.01109 -0.02774,-0.0083 -0.0055,0.01942 0.0028,0.03051 0.0083,0.01109 0.01942,0.01387 0.01387,0 0.02496,-0.0055 0.0111,-0.0083 0.01387,-0.02496 z m 2.12465,0.0638 h 0.03051 v -0.03051 h -0.03051 z m 0.230217,0.07489 q 0.01664,0.0028 0.03051,-0.0055 0.01664,-0.0111 0.02219,-0.02496 0.0083,-0.01387 0.0028,-0.02496 -0.0055,-0.01387 -0.02496,-0.01942 -0.0055,0.02219 -0.01942,0.03328 -0.01387,0.01109 -0.0111,0.04161 z m -2.340999,0.01664 q 0.01664,0.0083 0.02496,0 0.0083,-0.01109 0.0083,-0.02219 0,-0.01387 -0.0083,-0.02219 -0.0083,-0.0111 -0.02496,-0.0028 z m 0.213575,0.03051 q 0.01664,-0.0083 0.03883,-0.0111 0.02219,-0.0028 0.0416,-0.0083 0.01942,-0.0055 0.03051,-0.01664 0.01387,-0.01387 0.01109,-0.04161 -0.03051,0.02774 -0.06934,0.02774 -0.03606,0 -0.06657,-0.02774 -0.01387,0.03606 -0.0083,0.04438 0.0055,0.0055 0.02219,0.03328 z m 1.927718,0 q 0,-0.01387 0.0055,-0.01664 0.0083,-0.0055 0.01664,-0.0083 0.0083,-0.0028 0.01664,-0.0055 0.0083,-0.0055 0.0083,-0.01664 -0.02219,0.0055 -0.03051,-0.0055 -0.0083,-0.0111 -0.03051,-0.0083 0,0.01664 0,0.03606 0,0.01942 0.01387,0.02496 z m -2.371509,0.108174 q 0.02496,-0.02219 0.02219,-0.04993 0,-0.03051 -0.02219,-0.05825 -0.0028,0.01387 -0.0111,0.03051 -0.0055,0.01664 -0.0111,0.03328 -0.0028,0.01664 0,0.03051 0.0028,0.01109 0.02219,0.01387 z m 0.108174,-0.01664 q 0.01387,0.02219 0.03606,0.04161 0.02219,0.01664 0.07212,0.0028 -0.0028,-0.03883 -0.0055,-0.07212 -0.0028,-0.03328 -0.04161,-0.03328 0,0.01387 -0.0111,0.02219 -0.0083,0.0055 -0.01942,0.0111 -0.01109,0.0028 -0.02219,0.0083 -0.0083,0.0055 -0.0083,0.01942 z m 0.183064,0.07766 q 0.01664,-0.0055 0.03606,-0.0028 0.02219,0.0028 0.02496,-0.01387 -0.01387,0.0028 -0.01664,-0.0083 0,-0.0111 0,-0.02219 0,-0.01109 -0.0055,-0.01664 -0.0055,-0.0055 -0.02496,0.0028 0.0055,0.02219 -0.0055,0.03051 -0.0111,0.0083 -0.0083,0.03051 z m -0.35226,0.122043 q -0.01664,-0.0028 -0.01664,-0.0083 0,-0.0083 0.0055,-0.01664 0.0055,-0.0083 0.01109,-0.01664 0.0055,-0.0083 0,-0.01942 -0.02219,0 -0.03328,-0.01109 -0.0083,-0.0111 -0.01664,-0.02219 -0.0083,-0.01387 -0.01942,-0.02219 -0.0111,-0.01109 -0.03606,-0.0055 0.0111,0.04715 0.0083,0.06934 0,0.01942 0.01942,0.06657 0.02219,0.0028 0.03051,-0.0055 0.01109,-0.0111 0.03051,-0.0083 0,0.0055 0.0055,0.01109 0.0083,0.0028 0.01109,-0.01109 z m 0.521455,-0.04715 q 0.03051,0.0028 0.03606,-0.01942 0.0083,-0.02496 0.0083,-0.05547 h -0.04438 z m 2.371509,0.138685 v -0.124816 q -0.02219,0.0083 -0.03051,0.0055 -0.0083,-0.0055 -0.01387,-0.01387 -0.0028,-0.0083 -0.0111,-0.01387 -0.0055,-0.0083 -0.02219,-0.0055 -0.0083,0.0638 0.01942,0.09431 0.03051,0.02774 0.05825,0.05825 z m -2.632236,-0.07766 q 0.02219,-0.0028 0.03051,0.0083 0.0083,0.0111 0.03051,0.0055 0.0083,-0.0638 -0.04438,-0.06102 0,0.01664 -0.0055,0.02774 -0.0055,0.01109 -0.0111,0.01942 z m -0.399412,0.09153 v 0.03051 q 0.01387,0.0083 0.02219,0.0028 0.0111,-0.0083 0.0111,-0.01942 0.0028,-0.01109 -0.0028,-0.01942 -0.0028,-0.01109 -0.01387,-0.0083 0,0.01664 -0.01664,0.01387 z m 0.246859,0.06102 h 0.06102 q 0.0111,-0.06934 -0.06102,-0.06102 z m 2.615594,-0.01387 q 0.0055,-0.01664 -0.0028,-0.03328 -0.0083,-0.01942 -0.01387,0.0028 -0.0028,0.01387 0.0028,0.03328 0.0083,0.01942 0.01387,-0.0028 z m -2.432531,0.07489 q 0.0111,0.0055 0.01664,0.01942 0.0083,0.01109 0.01387,0.02219 0.0055,0.0083 0.01387,0.01664 0.0111,0.0055 0.03051,0.0028 -0.0083,-0.01942 0.0028,-0.03883 0.01387,-0.02219 0.02219,-0.03883 0.0111,-0.01942 0.0083,-0.03328 0,-0.01664 -0.03328,-0.02496 0.0028,0.03328 -0.0055,0.04438 -0.0055,0.0083 -0.01942,0.0083 -0.0111,0 -0.02774,0.0028 -0.01387,0 -0.02219,0.01942 z m -0.321748,0.07766 q 0.0111,0.0028 0.01664,0.01109 0.0083,0.0055 0.01387,0.0111 0.0083,0.0055 0.01664,0.01109 0.01109,0.0028 0.03051,-0.0028 0.0055,-0.0083 0.0055,-0.02774 0,-0.02219 -0.0083,-0.04438 -0.0055,-0.02219 -0.01664,-0.03883 -0.01109,-0.01942 -0.02774,-0.02496 0.0055,0.02219 0,0.03606 -0.0028,0.0111 -0.01109,0.02219 -0.0055,0.0083 -0.01387,0.01942 -0.0055,0.01109 -0.0055,0.02774 z m 0.521454,0.122043 q 0.0028,-0.01664 0.0111,-0.02496 0.0083,-0.0111 0.0028,-0.03606 h -0.04438 q -0.0055,0.02496 0,0.04161 0.0083,0.01664 0.03051,0.01942 z m -0.152553,-0.04438 q -0.01387,-0.0111 -0.03051,0 -0.01387,0.0083 -0.01664,0.01387 -0.0083,0.02219 0,0.02774 0.0111,0.0028 0.02496,-0.0028 0.01387,-0.0055 0.02219,-0.01664 0.01109,-0.01387 0,-0.02219 z m 0.105401,0.122042 q -0.0028,-0.02496 -0.02496,-0.02774 -0.02219,-0.0055 -0.0527,-0.0055 0.0028,0.02496 0.0083,0.03328 0.0083,0.0083 0.01664,0.0083 0.0111,0 0.02219,0 0.01387,-0.0028 0.03051,0.0055 l -0.0055,0.02496 0.02219,0.0055 q 0.0028,0.01664 0,0.02774 -0.0028,0.01109 -0.0083,0.01942 -0.0055,0.0083 -0.0111,0.01942 -0.0028,0.0083 0.0028,0.02496 l -0.02774,-0.0083 -0.01664,0.02496 q -0.02219,0.0055 -0.0416,0.0028 -0.01664,-0.0055 -0.03051,-0.01109 -0.01387,-0.0055 -0.02774,-0.0055 -0.01109,0 -0.02219,0.01387 0,0.01387 0.01942,0.02496 0.01942,0.0111 0.04161,0.01664 0.02496,0.0028 0.04438,0 0.01942,-0.0055 0.01664,-0.02774 l 0.02774,0.0083 0.01664,-0.02219 q 0.01109,-0.0083 0.02219,-0.02774 0.0111,-0.01942 0.01387,-0.03883 0.0055,-0.02219 0.0028,-0.03606 -0.0028,-0.01664 -0.02219,-0.01942 l 0.0055,-0.02496 z m -0.38277,0.122043 q 0.0083,-0.02219 0.03051,-0.03051 0,-0.03606 -0.02219,-0.04993 -0.01942,-0.01387 -0.03883,-0.02774 -0.0055,0.07212 0.03051,0.108174 z m 0.260727,-0.07766 q -0.0055,-0.0028 -0.01387,-0.0083 -0.0083,-0.0055 -0.01942,-0.0083 -0.01109,-0.0028 -0.01942,0 -0.0083,0.0028 -0.0083,0.01664 0.0028,0.0028 0.0111,0.0083 0.01109,0.0055 0.01941,0.0083 0.0111,0.0028 0.01942,0 0.0111,-0.0028 0.0111,-0.01664 z m 2.40202,0.169195 q 0.01664,0.0055 0.02496,0.0028 0.0111,-0.0055 0.01942,-0.0083 0.0083,-0.0055 0.01942,-0.0083 0.0111,-0.0028 0.02774,0 0.0028,-0.02219 -0.0083,-0.03051 -0.0083,-0.0111 -0.0055,-0.03329 h -0.0943 q -0.0028,0.01387 0,0.02219 0.0055,0.0055 0.0083,0.01387 0.0055,0.0055 0.0083,0.01664 0.0028,0.0083 0,0.02496 z m -2.632237,0.04715 q -0.01942,0.0055 -0.04438,0.0083 -0.02219,0.0028 -0.03051,0.01942 0.01942,-0.0028 0.02774,0.0055 0.01109,0.0083 0.01387,0.02219 0.0055,0.01109 0.0111,0.02219 0.0055,0.01109 0.02219,0.01109 0.0083,-0.0055 0.02219,0 0.0055,0.0028 0.0111,0.0083 l 0.02774,-0.0083 v 0.03328 l -0.02219,0.0055 0.0083,0.02219 h -0.03051 v 0.03328 h 0.04438 l -0.0083,0.02219 0.02496,0.0083 v 0.03051 h 0.04715 q -0.01942,-0.01109 -0.02774,-0.01942 -0.0055,-0.0111 -0.0083,-0.01942 -0.0028,-0.0111 -0.0028,-0.01664 l -0.02496,-0.0055 v -0.03328 l 0.02496,-0.0055 -0.0083,-0.02219 h 0.03051 q 0.0055,-0.02496 -0.01109,-0.02774 -0.01664,-0.0028 -0.03606,-0.0055 l -0.01664,-0.02219 -0.02774,0.0083 v -0.03051 q -0.0028,-0.01387 -0.0055,-0.02496 -0.0028,-0.01387 -0.01109,-0.01942 z m 0.230217,0.135911 q 0.01664,-0.0028 0.02496,0 0.0111,0.0028 0.01942,0.0083 0.0083,0.0028 0.01942,0.0083 0.0111,0.0028 0.02774,-0.0028 0.0083,-0.0055 0.01109,-0.01942 0.0055,-0.01664 0.0055,-0.03051 0,-0.01664 -0.0083,-0.02774 -0.0055,-0.0111 -0.02219,-0.0111 0.0028,0.02219 -0.0083,0.03328 -0.0083,0.0083 -0.02219,0.01387 -0.01387,0.0028 -0.02774,0.0083 -0.01387,0.0055 -0.01942,0.01942 z m 2.385378,-0.06102 q 0.0055,0.02219 -0.0055,0.03051 -0.01109,0.0083 -0.0083,0.03051 0.03328,-0.01387 0.06934,-0.01109 0.03606,0 0.06657,0 0.03051,0 0.04993,-0.0111 0.02219,-0.01109 0.02774,-0.0527 -0.03883,0.01664 -0.09153,0.01664 -0.0527,-0.0028 -0.108174,-0.0028 z m -0.07489,0.07489 q 0.0055,-0.01664 0.0028,-0.02496 -0.0028,-0.0083 -0.0083,-0.01387 -0.0028,-0.0083 -0.0083,-0.01387 -0.0028,-0.0083 0,-0.02219 -0.01109,0.0028 -0.02774,0.0028 -0.01387,-0.0028 -0.03051,-0.0028 -0.01387,-0.0028 -0.02496,0 -0.0111,0.0028 -0.0111,0.01387 0.01942,0.0028 0.03051,0.01387 0.01109,0.0083 0.02219,0.01942 0.0111,0.01109 0.02219,0.01942 0.01387,0.0083 0.03328,0.0083 z m -0.291238,0 q 0,-0.03883 -0.02774,-0.04715 -0.02774,-0.0083 -0.06379,-0.01387 -0.0028,0.07766 0.09153,0.06102 z m 0.183064,0.108174 h 0.03328 q 0,-0.01387 0.0083,-0.01942 0.0083,-0.0055 0.0055,-0.02496 h -0.03051 q 0,0.01387 -0.0111,0.01942 -0.0083,0.0055 -0.0055,0.02496 z m 0.108174,0.01664 q 0.0083,0.03051 0.0028,0.04993 -0.0028,0.01942 -0.01109,0.03606 -0.0083,0.01387 -0.01664,0.03051 -0.0055,0.01387 -0.0055,0.03606 0.0083,0.0028 0.01942,0.0028 0.0111,0 0.0111,0.01387 0.02219,-0.0111 0.04161,-0.03883 0.01942,-0.02774 0.03051,-0.06102 0.01387,-0.03328 0.01942,-0.06379 0.0055,-0.03051 0,-0.0527 -0.01942,0.04715 -0.09153,0.04715 z m -2.293846,0.07489 h 0.122043 q -0.0083,-0.03051 -0.01664,-0.06102 -0.0083,-0.03051 -0.03051,-0.04438 -0.0055,0.01664 -0.02219,0.02496 -0.01664,0.0055 -0.03328,0.01387 -0.01387,0.0055 -0.02219,0.01941 -0.0083,0.01387 0.0028,0.04715 z m 1.863923,0.138685 q 0.04438,0.01387 0.08876,-0.01664 0.04438,-0.03051 0.06657,-0.07489 -0.03606,0.01664 -0.05825,0.01109 -0.01942,-0.0083 -0.04993,-0.02496 -0.0028,0.01664 -0.0111,0.02774 -0.0083,0.0083 -0.01664,0.01941 -0.0083,0.0083 -0.01664,0.02219 -0.0055,0.01387 -0.0028,0.03606 z m 0.155327,0.152553 q 0.01664,0.01387 0.03051,0.03051 0.01387,0.01387 0.04438,0.01664 -0.01942,-0.07489 0.01942,-0.09708 0.03883,-0.02496 0.08876,0.0028 -0.0055,-0.02219 0.0055,-0.03051 0.0111,-0.0083 0.0111,-0.03051 -0.03051,-0.0083 -0.05825,0 -0.02774,0.0083 -0.0527,0.02774 -0.02496,0.01664 -0.04715,0.04161 -0.02219,0.02219 -0.04161,0.03883 z m -1.913849,-0.07489 q -0.0083,-0.0111 -0.02774,0 -0.01664,0.01109 -0.01664,0.01387 -0.0055,0.01109 0,0.01109 0.0083,0 0.01942,-0.0028 0.01109,-0.0055 0.01942,-0.01109 0.0083,-0.0055 0.0055,-0.01109 z m -0.321749,0.06102 q 0.03328,-0.0028 0.04993,0.01109 0.01942,0.01109 0.03606,0.02496 0.01664,0.01387 0.03328,0.02774 0.01942,0.0111 0.04993,0.0111 0.0028,-0.03329 -0.01664,-0.05825 -0.01942,-0.02496 -0.04715,-0.03606 -0.02774,-0.0111 -0.05825,-0.0055 -0.03051,0.0028 -0.04715,0.02496 z m 0.474302,0.122042 q 0.01942,-0.02496 0.01664,-0.07766 h -0.06102 q 0.0028,0.02774 0.01109,0.04993 0.0111,0.01942 0.03328,0.02774 z m 2.066403,0 q 0.03606,0.0055 0.05547,0.02774 0.02219,0.01942 0.02219,0.0638 0.01664,0.0028 0.02774,0 0.0111,-0.0055 0.02219,-0.0083 0.01109,-0.0055 0.02219,-0.0083 0.01387,-0.0028 0.03328,0 -0.01387,-0.01387 -0.03883,-0.03606 -0.02219,-0.02496 -0.04993,-0.04161 -0.02496,-0.01664 -0.0527,-0.01942 -0.02496,-0.0055 -0.04161,0.02219 z m -2.554573,0.07489 q 0.01664,0.0055 0.02496,0.01664 0.0111,0.01109 0.01664,0.02496 0.0083,0.01387 0.01387,0.02774 0.0055,0.01387 0.01942,0.02219 0.01942,-0.01387 0.03606,-0.01109 0.01942,0 0.02774,0.01109 0.01109,0.0111 0.01109,0.02774 0.0028,0.01664 -0.01387,0.03328 0.01387,0.0055 0.03051,0.01387 0.01664,0.0083 0.03051,0.0111 0.01387,0.0028 0.02219,-0.0028 0.0111,-0.0083 0.0111,-0.03606 -0.01942,-0.0028 -0.03883,0 -0.01941,0 -0.02219,-0.01387 -0.0083,-0.02219 -0.0028,-0.03051 0.0055,-0.0111 0.01664,-0.01664 0.0111,-0.0055 0.01942,-0.01109 0.0111,-0.0055 0.0111,-0.01942 -0.02219,-0.0111 -0.04715,-0.03051 -0.02496,-0.02219 -0.0527,-0.03883 -0.02774,-0.01942 -0.05825,-0.02496 -0.02774,-0.0083 -0.05547,0.0028 0.01942,0.0055 0.0083,0.01664 -0.0111,0.0083 -0.0083,0.02774 z m -0.138685,0.03051 q 0.0055,-0.03606 -0.0111,-0.04993 -0.01387,-0.01387 -0.03606,-0.02496 -0.01109,0.0111 -0.01387,0.02774 -0.0028,0.01387 0.0028,0.02774 0.0083,0.01109 0.02219,0.01942 0.01387,0.0055 0.03606,0 z m 0.657365,0.07766 q 0.01664,0 0.02496,-0.0028 0.0083,-0.0055 0.0111,-0.0055 0.0055,-0.0028 0.0083,0 0.0055,0 0.01664,0.0083 -0.0083,-0.0527 -0.06102,-0.06102 z m 1.514438,0.152553 q 0.01109,-0.01109 0.03051,-0.01109 0.02219,0 0.04161,0 0.02219,0 0.03606,-0.0055 0.01664,-0.0083 0.01387,-0.03051 -0.01942,0.0028 -0.04161,0.0028 -0.01942,0 -0.03606,0.0028 -0.01664,0.0028 -0.03051,0.01387 -0.01109,0.0083 -0.01387,0.02774 z m 0.338391,0.06102 q 0.04161,0 0.07212,0.0028 0.03051,0 0.05547,-0.0028 0.02496,-0.0055 0.04715,-0.01664 0.02496,-0.01387 0.0527,-0.04438 -0.04715,0.01109 -0.07766,0.01109 -0.02774,0 -0.0527,-0.0055 -0.02496,-0.0055 -0.05547,-0.01109 -0.02774,-0.0055 -0.07212,-0.0083 -0.0028,0.02774 0.0111,0.04161 0.01387,0.01109 0.01942,0.03328 z m -2.340999,0 q 0.0028,-0.0028 0.0083,-0.01109 0.0055,-0.0111 0.0083,-0.01942 0.0028,-0.0111 0,-0.01942 -0.0028,-0.01109 -0.01664,-0.01109 -0.0028,0.0028 -0.0083,0.01387 -0.0055,0.0083 -0.0083,0.01942 -0.0028,0.0111 0,0.01942 0.0028,0.0083 0.01664,0.0083 z m 1.789033,0.06102 q 0.05825,-0.0028 0.06102,-0.06102 -0.05825,0.0028 -0.06102,0.06102 z m 0.152554,-0.03051 q -0.03051,0.02219 -0.02774,0.03606 0.0055,0.01387 0.01664,0.01387 0.01387,0 0.02219,-0.01109 0.0083,-0.0111 -0.01109,-0.03883 z m -1.666991,0.155327 q 0.06379,-0.0083 0.06102,-0.07766 h -0.06102 q 0.0028,0.01664 0.0055,0.02496 0.0028,0.0083 0.0028,0.01387 0,0.0055 -0.0028,0.01387 -0.0028,0.0055 -0.0055,0.02496 z m 2.266109,0.183064 q 0,-0.102627 -0.108174,-0.09431 0.0028,0.09708 0.108174,0.09431 z m -1.714144,-0.04715 h 0.03051 v -0.03051 h -0.03051 z m -0.03328,0.108174 q 0.02219,0.01109 0.03328,0.0028 0.01387,-0.01109 0.01664,-0.02774 0.0028,-0.01664 -0.0028,-0.03328 -0.0028,-0.01664 -0.01387,-0.01942 0,0.03051 -0.01387,0.04438 -0.01387,0.01109 -0.01942,0.03328 z m 0.368901,0.09153 q 0.0111,0.0055 0.01942,0.0111 0.0111,0.0028 0.02774,0.0028 -0.01387,-0.02496 -0.01942,-0.04715 -0.0028,-0.02496 -0.0055,-0.04438 0,-0.02219 -0.0055,-0.04161 -0.0028,-0.01942 -0.01664,-0.03328 -0.01109,0.04993 -0.0083,0.07489 0.0055,0.02496 -0.0055,0.06102 l -0.02496,0.0083 0.0083,0.02219 q -0.03051,-0.0028 -0.03883,0.0111 -0.0055,0.01109 0,0.02219 0.0083,0.0083 0.01942,0.0083 0.01387,0 0.01942,-0.02496 l 0.02219,-0.0083 z m -1.445095,-2.898511 q 0.01664,0.0083 0.03051,0.01109 0.01664,0 0.03051,0.0028 z m 2.998365,-0.108174 q -0.0083,0.01387 -0.02219,0.02219 -0.0111,0.0083 -0.02496,0.02219 z M 22.5696,12.061239 q 0.0055,-0.0083 0.01387,-0.01664 0.0083,-0.0083 0.01387,-0.01664 z m -0.0111,0.135911 q -0.0055,-0.0111 -0.0055,-0.02219 0,-0.01109 -0.0055,-0.02496 z m -0.291238,0.152553 q -0.0028,0.0083 -0.0055,0.01664 -0.0028,0.0083 -0.0055,0.01387 z m 0.04161,0.07766 q -0.01387,-0.0055 -0.02496,-0.0083 -0.01109,-0.0028 -0.02219,-0.0083 z m 0,0.04438 -0.03328,0.01664 z m 1.115025,1.500569 -0.03051,-0.03051 z"
         style="stroke-width:0.297174"
         id="path1517" />
      <path
         d="m 27.196123,10.879645 q 0.08044,0.0028 0.163648,0 0.08599,-0.0028 0.163648,0 0.08044,0.0028 0.14978,0.01664 0.06934,0.0111 0.119269,0.04438 0.02774,0.03606 0.04161,0.09153 0.01387,0.05547 0.01664,0.122043 0.0055,0.06379 0.0028,0.135911 0,0.06934 0,0.138685 0,0.0638 -0.0028,0.130363 0,0.06657 -0.0083,0.130364 -0.0083,0.06102 -0.03051,0.110948 -0.02219,0.04715 -0.06657,0.07212 -0.04993,0.03051 -0.108174,0.03606 -0.05825,0.0055 -0.124817,0.0028 -0.06657,-0.0055 -0.141458,-0.01109 -0.07489,-0.0055 -0.158101,0.0055 -0.01109,0.155327 -0.01664,0.363354 -0.0028,0.205254 -0.0028,0.432697 0,0.224669 0,0.454886 0.0028,0.227443 0.0028,0.429922 0,0.09708 0.0028,0.194159 0.0028,0.09708 -0.0028,0.18029 -0.0055,0.08044 -0.03051,0.144232 -0.02219,0.0638 -0.07489,0.09431 -0.03328,0.01664 -0.09153,0.02496 -0.05547,0.0055 -0.122043,0.0083 -0.06379,0 -0.130363,0 -0.06657,-0.0028 -0.116496,-0.0028 -0.04715,0 -0.113721,0.0028 -0.06379,0.0028 -0.130364,0.0028 -0.06379,0 -0.122042,-0.0055 -0.05825,-0.0083 -0.09431,-0.03051 -0.04715,-0.02774 -0.07212,-0.09708 -0.02496,-0.06934 -0.03606,-0.163648 -0.0111,-0.09708 -0.01387,-0.208027 0,-0.110948 0.0028,-0.221896 0.0028,-0.113722 0.0083,-0.216348 0.0055,-0.102627 0.0055,-0.18029 v -1.192689 q -0.06102,-0.01387 -0.116496,-0.01664 -0.05547,-0.0028 -0.102626,-0.0083 -0.04715,-0.0083 -0.08599,-0.02496 -0.03606,-0.01664 -0.06102,-0.05825 -0.04161,-0.06102 -0.04438,-0.14978 -0.0028,-0.08876 0.0055,-0.185838 0.0083,-0.09985 0.0111,-0.199706 0.0055,-0.09985 -0.01942,-0.183063 0.03051,-0.0527 0.0638,-0.09985 0.03606,-0.04993 0.07212,-0.09708 0.03883,0.0028 0.07212,0 0.03328,-0.0055 0.06379,-0.0083 0.03328,-0.0055 0.06657,-0.0083 0.03328,-0.0028 0.07489,0 0.02496,-0.108174 0.01109,-0.224669 -0.01109,-0.119269 -0.02219,-0.230217 -0.01109,-0.113721 -0.0028,-0.213574 0.0083,-0.102627 0.07489,-0.174743 0.02219,-0.02219 0.07489,-0.044379 0.0527,-0.02219 0.108174,-0.044379 0.06379,-0.027737 0.141458,-0.0527 0.08044,-0.027737 0.160874,-0.055474 0.08044,-0.027737 0.158101,-0.0527 0.07766,-0.027737 0.135911,-0.055474 0.02496,-0.011095 0.05825,-0.00555 0.03328,0.00277 0.06657,0.013868 0.03606,0.00832 0.06379,0.024963 0.02774,0.013868 0.04161,0.027737 0.04161,0.049926 0.05825,0.12759 0.01942,0.077663 0.01942,0.174742 0.0028,0.09431 -0.0055,0.199706 -0.0083,0.105401 -0.01664,0.210801 -0.0083,0.102627 -0.0111,0.199706 0,0.09708 0.01664,0.174743 z M 26.874375,10.63556 q 0.03051,0.0055 0.04715,-0.0055 0.01942,-0.01387 0.02219,-0.02774 0.0028,-0.01664 -0.0111,-0.03051 -0.01387,-0.01387 -0.0416,-0.01387 -0.02496,0.02774 -0.01664,0.07766 z m -0.38277,0.335617 v 0.07489 q 0.01941,0.0028 0.03883,-0.0083 0.01942,-0.0111 0.02774,-0.02496 0.0111,-0.01664 0.0083,-0.03328 -0.0028,-0.01664 -0.02774,-0.02219 -0.0028,0.01387 -0.01664,0.01664 -0.01387,0 -0.03051,-0.0028 z m -0.474302,0.305106 q 0.01664,-0.01387 0.06102,-0.01387 -0.0028,-0.03883 -0.01942,-0.0638 -0.01664,-0.02774 -0.01109,-0.07489 -0.03606,0 -0.05825,0.01942 -0.01942,0.01942 -0.02496,0.04993 -0.0055,0.02774 0.0028,0.05547 0.01109,0.02774 0.03606,0.04438 l -0.0083,0.02219 0.02219,0.0083 q 0.0028,0.01664 0.0083,0.03606 0.0083,0.01942 0.01942,0.03329 0.01109,0.01109 0.02219,0.01664 0.01387,0.0055 0.02774,-0.0083 0.0083,-0.02496 -0.0028,-0.03051 -0.0111,-0.0083 -0.02774,-0.0111 -0.01387,-0.0055 -0.02496,-0.0083 -0.01109,-0.0055 -0.0055,-0.02774 l -0.0083,-0.02219 z m 1.578232,-0.04438 q 0,-0.01942 0.01387,-0.01664 -0.0028,-0.01387 -0.0083,-0.02496 -0.0028,-0.01109 -0.02219,-0.0055 0.0028,0.01387 0.0028,0.03051 0,0.01387 0.01387,0.01664 z m -0.443791,0.152554 q 0,-0.01387 0.0083,-0.0111 0.0111,0 0.01942,-0.0055 -0.0028,-0.0083 0,-0.01942 0.0028,-0.01387 0.0028,-0.02496 0.0028,-0.01387 -0.0028,-0.02219 -0.0028,-0.0083 -0.01387,-0.0083 0,0.01109 -0.01109,0.01387 -0.0083,0.0028 -0.01942,0.0055 -0.0083,0 -0.01942,0.0028 -0.0083,0 -0.0111,0.0083 -0.01387,-0.02496 -0.03051,-0.04715 -0.01387,-0.02496 -0.04715,-0.03051 0.0028,0.03051 0.01664,0.04438 0.01664,0.01387 0.03606,0.02774 0.01942,0.0111 0.03328,0.02496 0.01664,0.01387 0.02219,0.04161 l -0.02219,0.0055 0.0055,0.02496 q -0.01109,0.01387 -0.02496,0.02774 -0.01387,0.01109 -0.01941,0.03328 l -0.02219,-0.0083 -0.02496,0.0083 q -0.06934,-0.0028 -0.07489,0.06102 0.03051,-0.0028 0.04438,-0.01664 0.01387,-0.01664 0.03051,-0.03051 l 0.03051,0.0083 0.01664,-0.02219 q 0.02219,0.0028 0.02774,0.02496 0.0055,0.02219 0.01664,0.03606 0.01942,-0.0055 0.03883,-0.0083 0.02219,-0.0028 0.04161,-0.0083 0.01942,-0.0083 0.03051,-0.01942 0.0111,-0.01387 0.0111,-0.03883 -0.0111,-0.0028 -0.0111,-0.01109 0,-0.0111 -0.0028,-0.02219 -0.01387,0.0028 -0.02774,0.0083 -0.01387,0.0055 -0.02774,0.0083 -0.01387,0 -0.02496,-0.0055 -0.0083,-0.0055 -0.0111,-0.02496 l 0.02219,-0.0083 z m -0.582476,-0.01664 q 0.02219,0.0083 0.04438,0.03606 0.02219,0.02496 0.04161,0.04438 0.02219,0.01942 0.04161,0.02219 0.01942,0 0.03883,-0.04161 -0.02774,-0.0028 -0.04438,-0.01664 -0.01387,-0.01664 -0.02496,-0.03606 -0.0083,-0.01942 -0.01941,-0.03883 -0.0111,-0.01942 -0.03328,-0.03051 -0.0028,0.02496 -0.02219,0.03328 -0.01664,0.0055 -0.02219,0.02774 z m -0.169195,0 q -0.03606,-0.0055 -0.04715,0 -0.0083,0.0055 -0.0028,0.01109 0.0083,0.0055 0.02219,0.0055 0.01387,0 0.02774,-0.01664 z m 0.901451,0.244086 q 0.03051,-0.0028 0.04715,0.0028 0.01664,0.0055 0.03051,0.01387 0.0083,-0.03329 0.02219,-0.04438 0.01664,-0.01387 0.03328,-0.01942 0.01942,-0.0055 0.03883,-0.0083 0.02219,-0.0055 0.04438,-0.01942 v -0.07489 q -0.03051,0.02219 -0.05825,0.01387 -0.02774,-0.0083 -0.04993,-0.02219 -0.02219,-0.01387 -0.03883,-0.02219 -0.01387,-0.0083 -0.02219,0.01387 0.02496,0.0083 0.02219,0.02496 -0.0028,0.01664 -0.01942,0.03606 -0.01664,0.01664 -0.03883,0.03051 -0.02219,0.01387 -0.03883,0.01387 v 0.01664 l -0.02496,-0.0083 0.0083,0.02496 q -0.01387,0 -0.01387,0.01664 0.0028,0.01387 -0.0028,0.02774 0.02219,0.0055 0.02774,-0.0028 0.0055,-0.01109 0.01942,-0.01387 l 0.0083,0.02496 z M 25.909129,11.5065 v -0.04438 h -0.04438 q -0.0055,0.01664 0.0028,0.02496 0.0111,0.0055 0.01387,0.01942 h -0.01664 v 0.01664 0.02774 h 0.03051 v -0.02774 l 0.02496,0.0055 z m 0.246859,0.01664 q 0.0028,0.03883 0.01109,0.06934 0.0111,0.03051 0.03606,0.0527 -0.0055,-0.03328 0.0083,-0.04715 0.01387,-0.01664 0.03328,-0.02496 0.01942,-0.0111 0.03883,-0.01942 0.01942,-0.0083 0.02496,-0.03051 -0.03606,0.0083 -0.05547,0.0055 -0.01942,-0.0028 -0.03606,-0.0083 -0.01387,-0.0055 -0.02774,-0.0055 -0.01109,-0.0028 -0.03328,0.0083 z m 1.361884,0.105401 h 0.04438 q 0.0028,-0.03883 -0.04438,-0.03051 z m -0.427149,0.07766 h 0.02774 q 0.0083,-0.01387 0.0028,-0.02219 -0.0055,-0.0083 -0.01664,-0.0111 -0.0111,-0.0028 -0.02219,0.0028 -0.01109,0.0028 -0.0083,0.01387 0.01664,0 0.01664,0.01664 z m -0.538097,0.09153 q -0.01387,0 -0.01664,-0.01387 0,-0.01387 -0.01387,-0.01664 -0.0055,0.01109 -0.0028,0.02496 0.0028,0.01109 0.0083,0.01942 0.0083,0.0055 0.01387,0.0055 0.0083,-0.0028 0.0111,-0.01942 z m 0.03328,0.305107 q 0.0055,-0.02219 -0.0028,-0.03329 -0.0055,-0.01109 -0.01942,-0.01387 -0.0111,-0.0055 -0.02774,-0.0055 -0.01664,-0.0028 -0.02774,-0.0083 0.0055,0.06379 0.07766,0.06102 z m -0.03328,0.291238 q 0,-0.01664 0.01664,-0.01664 -0.0028,-0.01387 -0.0083,-0.02219 -0.0028,-0.0111 -0.02219,-0.0055 0.0028,0.01387 0,0.02774 0,0.01387 0.01387,0.01664 z m 0.291238,0.427149 q 0.0028,-0.0527 -0.03051,-0.07489 0.0028,0.01109 0,0.02774 -0.0028,0.01387 -0.0028,0.02774 0,0.01109 0.0055,0.01942 0.0083,0.0055 0.02774,0 z m -0.612987,0.352259 q 0.07212,-0.01664 0.09431,-0.09153 -0.03883,0.0083 -0.06102,0 -0.01942,-0.01109 -0.04715,-0.01387 0,0.03051 0,0.06102 0,0.03051 0.01387,0.04438 z m 0.735029,0.01664 q 0.0028,-0.02219 -0.0083,-0.03051 -0.0083,-0.01109 -0.02219,-0.01664 -0.01664,0.01664 -0.01387,0.03883 0.0055,0.01942 0.04438,0.0083 z m -0.551965,0.45766 q -0.01942,0 -0.03051,-0.0055 -0.01109,-0.0083 -0.02496,-0.01387 -0.0111,-0.0083 -0.02774,-0.0111 -0.01387,-0.0055 -0.03883,0 -0.0028,0.02496 0.01387,0.04161 0.01664,0.01387 0.03606,0.01942 0.02219,0.0028 0.04161,-0.0028 0.02219,-0.0083 0.03051,-0.02774 z m 0.443791,0.122042 q 0.03051,-0.04438 0.06657,-0.0527 0.03883,-0.0083 0.102627,0.0083 -0.0055,-0.0527 -0.02774,-0.06102 -0.02219,-0.0083 -0.05547,0.0028 -0.03328,0.0083 -0.07212,0.02496 -0.03883,0.01664 -0.07489,0.01664 0.01387,0.0028 0.01387,0.01942 0,0.01387 0.0028,0.02774 l -0.02219,-0.0083 0.0055,0.02219 h -0.06102 q 0.01387,0.01942 0.01942,0.04715 0.0083,0.02496 0.01664,0.04993 0.0083,0.02496 0.02219,0.0416 0.01664,0.01664 0.04993,0.01664 -0.0111,-0.03606 -0.0083,-0.05547 0.0055,-0.02219 -0.02219,-0.0527 0.02219,0.0055 0.02496,-0.0055 0.0028,-0.0111 0.0055,-0.02496 l 0.02496,0.0083 z m -0.305106,0.155327 q -0.03883,-0.02219 -0.03883,-0.0527 0.0028,-0.03051 0.0083,-0.06934 0.0111,-0.01664 0.02219,-0.02219 0.01387,-0.0055 0.02496,-0.0083 0.01109,-0.0055 0.01942,-0.01109 0.0083,-0.0055 0.0111,-0.01942 -0.0028,-0.01664 -0.01387,-0.02496 -0.01109,-0.0083 -0.01664,-0.02219 -0.02219,-0.0028 -0.03883,0.0028 -0.01387,0.0028 -0.03051,0.0083 -0.01387,0.0028 -0.03051,0.0055 -0.01387,0.0028 -0.03883,-0.0028 0.0028,0.03051 0.01387,0.04993 0.0111,0.01942 0.01942,0.03883 0.01109,0.01664 0.01109,0.03883 0.0028,0.02219 -0.01387,0.05547 0.0111,0.0028 0.02496,0.01387 0.01387,0.0083 0.02774,0.01664 0.01387,0.0083 0.02219,0.0111 0.01109,0.0028 0.01664,-0.0083 z m 0.474302,0.02774 q 0.0083,0.0028 0.01387,-0.0111 0.0055,-0.01664 0.0055,-0.03328 0,-0.01664 -0.0083,-0.02774 -0.0083,-0.01109 -0.02496,-0.0028 -0.0055,0.0055 -0.01109,0.01942 -0.0055,0.01387 -0.0083,0.03051 0,0.01387 0.0055,0.02219 0.0083,0.0083 0.02774,0.0028 z m -0.213575,-0.183064 v -0.01387 q 0.0111,-0.0028 0.0111,0.0028 0.0028,0.0055 0.0055,0.0111 l -0.01664,0.01664 q -0.0111,0.0028 -0.01664,-0.01664 z m -0.81824,-2.45472 q 0.0055,-0.0055 0.01387,-0.0055 0.0083,-0.0028 0.01664,-0.0083 z m 1.117799,0.07489 q 0.01109,0.0055 0.02219,0.0083 0.0111,0.0028 0.02219,0.0083 z m 0.135911,0.169195 q 0.02219,0.01942 0.03328,0.04161 0.01109,0.02219 0.01387,0.03606 z M 25.86475,11.5065 q 0.01109,0.0055 0.02496,0.01109 0.01387,0.0028 0.03051,0.01109 z m 1.192688,-0.0083 q -0.0055,-0.0083 -0.0055,-0.03051 z m -0.266274,2.249467 q 0.0083,0.01387 0.02219,0.02219 0.0111,0.0055 0.02496,0.01109 0.01387,0.0028 0.03051,0.01387 z"
         style="stroke-width:0.297174"
         id="path1519" />
    </g>
    <path
       d="m 8.8901005,33.111807 c -0.1777033,0.0081 -0.3664153,0.05403 -0.5528603,0.09215 l 1.0731613,1.127017 -0.371704,0.0031 c -0.5044683,0.0031 -1.2998948,0.105761 -1.7783288,0.383004 l 0.545339,0.885703 -0.697645,0.362309 v 0.971587 l 0.799222,0.451989 -0.799222,0.688214 v 0.554135 c 0.484565,-0.02122 1.0411865,0.01044 1.5306975,-0.152959 l 0.5478463,-0.182993 -0.374847,0.439387 c -0.3221623,0.377814 -0.5114403,0.946802 -0.8712798,1.506291 0.5479845,-0.04115 1.0879308,-0.131371 1.6623258,-0.443229 l 0.275212,-0.149095 -0.167366,1.324434 c 0.4522115,-0.209332 0.8947545,-0.496682 1.2223255,-0.842406 0.38953,-0.411114 0.613291,-0.867056 0.572885,-1.248631 l -0.0015,-0.01292 c -0.317264,-0.217781 -0.553766,-0.535234 -0.673563,-0.930333 -0.144493,-0.476594 -0.100753,-1.070376 0.114077,-1.736938 -0.453464,-0.06938 -0.799151,-0.251357 -0.9841205,-0.517074 -0.21174,-0.304237 -0.244231,-0.674206 -0.132883,-0.979159 0.111332,-0.304953 0.3827825,-0.552362 0.7459345,-0.573574 0.353039,-0.02045 0.763846,0.172298 1.201615,0.619974 0.195217,0.07057 0.373165,0.137968 0.53476,0.205046 0.04178,-0.367412 -0.0251,-0.65313 -0.178734,-0.908441 -0.144426,-0.239991 -0.3987,-0.453878 -0.705801,-0.662562 l 0.07333,0.736509 -0.282062,-0.188645 C 10.581364,33.508894 9.6643885,33.0782 8.8901005,33.114383 l 3.5e-5,-0.0039 z m 1.7239255,1.339426 c -0.0076,1.36e-4 -0.01487,0 -0.02215,0 h -3.4e-5 c -0.232518,0.0135 -0.38716,0.156356 -0.462582,0.36295 -0.07543,0.206586 -0.05569,0.469723 0.09462,0.685711 0.150347,0.21596 0.431518,0.397684 0.919568,0.42561 l 0.216292,0.01188 -0.07459,0.203101 c -0.254793,0.694813 -0.278921,1.26955 -0.147291,1.703746 0.131543,0.433907 0.412835,0.734914 0.812356,0.902603 h 5.04e-4 l 1.864797,0.660705 c 0.09707,-0.204354 0.200435,-0.408935 0.308901,-0.613242 -0.08574,0.03757 -0.18054,0.05861 -0.280256,0.05861 -0.386736,0 -0.700304,-0.313614 -0.700304,-0.700342 0,-0.386697 0.313568,-0.700309 0.700304,-0.700309 0.354791,0 0.647364,0.263999 0.693314,0.606199 0.183161,-0.310175 0.375823,-0.618216 0.574938,-0.921884 l -1.772642,-0.899463 -0.08142,-0.09843 c -0.06757,-0.232887 -0.197819,-0.400563 -0.453263,-0.572354 -0.255466,-0.171763 -0.635981,-0.336077 -1.164043,-0.525885 l -0.03572,-0.01321 -0.02625,-0.02762 c -0.399738,-0.421208 -0.733182,-0.554233 -0.965049,-0.549866 z m 2.044254,1.544349 c 0.142051,0 0.251701,0.109634 0.251701,0.251703 0,0.142087 -0.109654,0.252238 -0.251721,0.252238 -0.14202,0 -0.252218,-0.110174 -0.252218,-0.252218 0,-0.142023 0.110178,-0.251669 0.252218,-0.251669 z"
       fill="#000000"
       fill-opacity="1"
       id="path1011"
       style="stroke-width:0.0171725" />
    <text
       xml:space="preserve"
       style="font-size:5.54739px;line-height:1.25;font-family:'COCOGOOSE LETTERPRESS';-inkscape-font-specification:'COCOGOOSE LETTERPRESS';letter-spacing:0px;word-spacing:0px;stroke-width:0.297174"
       x="19.695671"
       y="52.058781"
       id="text37"><tspan
         sodipodi:role="line"
         id="tspan35"
         x="19.695671"
         y="52.058781"
         style="stroke-width:0.297174">Klugheit</tspan></text>
    <path
       d="m 9.7726985,47.013789 c -0.126179,0.01363 -0.252917,0.03003 -0.380385,0.04917 0.322013,0.183218 0.6180195,0.440558 0.8035185,0.893716 -0.3862975,-0.349321 -0.6863225,-0.612914 -1.1760675,-0.830329 -0.136669,0.02606 -0.274486,0.05529 -0.4136063,0.08759 0.3520673,0.166725 0.7607083,0.404884 1.1655003,0.796085 -0.891511,-0.394957 -1.2691193,-0.482038 -1.8655391,-0.611352 -0.1877961,0.05533 -0.3786478,0.115846 -0.5730689,0.181683 0.8505027,0.05488 1.600162,0.3048 2.9069405,0.740396 l 0.03127,0.0098 0.02332,0.02332 c 0.0899,0.08985 0.23827,0.143591 0.391061,0.145123 -0.04228,-0.611585 -0.291511,-1.051818 -0.9129285,-1.485623 z m 1.8393175,0 c -0.621433,0.433807 -0.870628,0.874038 -0.912924,1.485854 0.152789,-0.0018 0.301173,-0.05525 0.391059,-0.145125 l 0.02331,-0.02332 0.03125,-0.0098 c 1.306806,-0.435699 2.05645,-0.685713 2.906952,-0.740522 -0.194421,-0.06584 -0.385271,-0.126382 -0.573083,-0.181698 -0.596421,0.129318 -0.974034,0.216398 -1.865537,0.611349 0.40479,-0.391199 0.813423,-0.629345 1.165511,-0.796096 -0.13909,-0.03225 -0.276921,-0.0615 -0.413589,-0.0876 -0.489743,0.217387 -0.789785,0.480944 -1.176065,0.830264 0.185483,-0.453154 0.481506,-0.710492 0.803515,-0.893714 -0.12748,-0.01917 -0.254203,-0.03562 -0.380383,-0.04922 z M 7.1080627,47.85256 v 4.682207 c 0.6932737,0.0031 1.6448968,0.260877 2.9481223,0.690452 V 48.55415 C 8.7067822,48.104654 7.9873785,47.874643 7.1080627,47.852575 Z m 7.1685913,0 c -0.879319,0.02212 -1.598717,0.252081 -2.948124,0.701607 v 4.671217 c 1.3083,-0.42977 2.225251,-0.659442 2.948124,-0.685826 z m -3.941174,0.85643 v 3.108327 c 0.240038,0.04803 0.476509,0.05113 0.713755,0.0017 v -3.109849 c -0.112136,0.04741 -0.234918,0.07006 -0.356877,0.07006 -0.121959,0 -0.244741,-0.02265 -0.356878,-0.07006 z m 0,3.392309 v 0.216191 c 0.23734,0.05418 0.473437,0.05101 0.713755,-0.0018 v -0.212904 c -0.238487,0.04231 -0.477347,0.03935 -0.713755,-0.002 z m 0.713755,0.499398 c -0.236253,0.04429 -0.475314,0.04739 -0.713755,0.0023 v 0.75779 c 0.04999,0.05035 0.08961,0.09113 0.129795,0.117302 0.05094,0.03311 0.105052,0.05423 0.221482,0.04957 l 0.0029,-1.2e-4 h 0.0029 c 0.180146,0 0.247549,-0.06264 0.356877,-0.168132 v -0.758284 z"
       fill="#000000"
       fill-opacity="1"
       id="path1055"
       style="stroke-width:0.0155166" />
    <text
       xml:space="preserve"
       style="font-size:5.54739px;line-height:1.25;font-family:'COCOGOOSE LETTERPRESS';-inkscape-font-specification:'COCOGOOSE LETTERPRESS';letter-spacing:0px;word-spacing:0px;stroke-width:0.297174"
       x="19.814941"
       y="79.149681"
       id="text53"><tspan
         sodipodi:role="line"
         id="tspan51"
         x="19.814941"
         y="79.149681"
         style="stroke-width:0.297174">Gewandheit</tspan></text>
    <g
       id="g452"
       transform="translate(-1.2784485)">
      <path
         d="m 16.129377,74.793471 c 0,0 -0.653083,1.376296 -0.829813,2.080703 -0.23116,0.92137 0.03346,1.617888 -0.302407,2.511269 -0.580683,1.04803 -0.619993,1.217337 -2.739199,1.215146 -0.776415,-7.1e-4 -3.0006813,-0.592975 -3.0006813,-0.592975 -0.3066659,-0.07882 -0.8707655,-0.03238 -0.8707655,-0.3749 0,-0.342494 0.4013377,-0.592588 0.7576707,-0.593411 l 1.4038781,0.123274 c 0.341008,-0.02139 0.698245,-0.221154 0.709117,-0.667174 -0.0056,-0.660192 -0.07098,-1.167191 -0.406096,-1.703432 L 9.5497947,74.761662 c -0.07772,-0.161634 -0.09621,-0.43723 0.128775,-0.56026 0.224978,-0.123051 0.4805893,0.05985 0.5678903,0.219091 l 1.45356,1.97717 c 0.155148,0.144454 0.43131,0.17228 0.40776,-0.135175 l -0.641819,-2.942546 c -0.03998,-0.209057 0.06614,-0.462218 0.308101,-0.462218 0.31757,0 0.512884,0.121227 0.506722,0.313153 l 0.705729,2.903314 c 0.05518,0.141307 0.250757,0.12243 0.303377,-0.0074 l 0.201023,-2.823348 c 0.01025,-0.09012 0.12779,-0.247028 0.353271,-0.214315 0.22544,0.03268 0.355439,0.274224 0.331569,0.367671 l -0.06519,2.789623 c 0.04579,0.247243 0.240152,0.283342 0.391431,0.145311 l 0.987538,-1.766153 c 0.06,-0.148128 0.295002,-0.178988 0.430939,-0.120259 0.126468,0.08241 0.208961,0.192928 0.208961,0.348477 z"
         fill="#000000"
         fill-opacity="1"
         id="path1145"
         style="stroke-width:0.0161308" />
    </g>
    <text
       xml:space="preserve"
       style="font-size:5.54739px;line-height:1.25;font-family:'COCOGOOSE LETTERPRESS';-inkscape-font-specification:'COCOGOOSE LETTERPRESS';letter-spacing:0px;word-spacing:0px;stroke-width:0.299222"
       x="19.695671"
       y="91.958855"
       id="text57"><tspan
         sodipodi:role="line"
         id="tspan55"
         x="19.695671"
         y="91.958855"
         style="font-size:5.54739px;stroke-width:0.299222">Krperkraft</tspan></text>
    <path
       d="m 10.725212,86.342418 c -0.204276,0 -0.396891,0.116994 -0.547122,0.331121 -0.150232,0.214114 -0.2488085,0.521698 -0.2488085,0.863966 0,0.34224 0.098581,0.649368 0.2488235,0.863482 0.15023,0.21414 0.342846,0.331123 0.547107,0.331123 0.204277,0 0.396405,-0.116983 0.546636,-0.331123 0.150261,-0.2141 0.249309,-0.521212 0.249309,-0.863482 0,-0.342238 -0.09905,-0.649837 -0.249295,-0.863966 -0.150216,-0.214113 -0.342344,-0.331121 -0.54662,-0.331121 z m -2.2874178,0.655578 c -0.309125,0.0084 -0.3653173,0.21149 -0.483821,0.441954 -0.3546904,0.689709 -0.8459105,2.508162 -0.8459105,2.508162 l 2.4430078,-0.0828 0.443401,2.094724 -0.346805,1.614208 h 2.2698025 l -0.339221,-1.613743 0.369182,-2.093308 2.398248,0.08085 c 2.9e-5,0 -0.491188,-1.818468 -0.845847,-2.508164 -0.118554,-0.230496 -0.17473,-0.433232 -0.483852,-0.441955 -0.27248,0 -0.493352,0.236765 -0.493352,0.528551 0,0.291784 0.220872,0.528579 0.493352,0.528579 0.05678,0 0.110498,-0.01349 0.161285,-0.03237 l 0.120826,1.132763 -1.780282,-0.610379 c -0.0043,0.006 -0.0084,0.01321 -0.01284,0.01947 -0.189325,0.269833 -0.465916,0.452002 -0.779776,0.452002 -0.313829,0 -0.59042,-0.182169 -0.7797475,-0.452004 -0.0042,-0.0058 -0.0082,-0.01238 -0.01235,-0.01856 l -1.7774103,0.60949 0.120834,-1.132765 c 0.0508,0.01891 0.104543,0.03233 0.161298,0.03233 0.272481,0 0.4933523,-0.23678 0.4933523,-0.528579 0,-0.291771 -0.2208563,-0.528551 -0.4933363,-0.528551 z"
       fill="#000000"
       fill-opacity="1"
       id="path1189"
       style="stroke-width:0.0152245" />
    <text
       xml:space="preserve"
       style="font-size:5.54739px;line-height:1.25;font-family:'COCOGOOSE LETTERPRESS';-inkscape-font-specification:'COCOGOOSE LETTERPRESS';letter-spacing:0px;word-spacing:0px;stroke-width:0.264581"
       x="19.800852"
       y="158.81871"
       id="text1225"
       transform="scale(1.000011,0.999989)"><tspan
         sodipodi:role="line"
         x="19.800852"
         y="158.81871"
         style="font-size:5.54739px;stroke-width:0.264581"
         id="tspan1227">Lebenspunkte</tspan></text>
    <path
       d="m 13.293408,155.6773 c 0,2.22369 -3.092672,4.47422 -3.092672,4.47422 0,0 -3.0926733,-2.25053 -3.0926733,-4.47422 0,-1.26057 0.974071,-1.72563 1.486279,-1.72563 1.07088,0 1.6063943,0.90633 1.6063943,0.90633 0,0 0.535514,-0.90648 1.6064,-0.90648 0.512202,1.5e-4 1.486272,0.46504 1.486272,1.72578 z"
       fill="#000000"
       fill-opacity="1"
       id="path1413"
       style="stroke-width:0.0137914" />
    <text
       xml:space="preserve"
       style="font-size:5.54739px;line-height:1.25;font-family:'COCOGOOSE LETTERPRESS';-inkscape-font-specification:'COCOGOOSE LETTERPRESS';letter-spacing:0px;word-spacing:0px;stroke-width:0.264581"
       x="20.025917"
       y="170.00204"
       id="text1233"
       transform="scale(1.000011,0.999989)"><tspan
         sodipodi:role="line"
         id="tspan1231"
         x="20.025917"
         y="170.00204"
         style="font-size:5.54739px;stroke-width:0.264581">Astralenergie</tspan></text>
    <g
       id="g2621"
       transform="translate(-3.0955963,6.0350982)">
      <path
         d="m 12.7407,158.67774 c -0.850041,0.67277 -1.201916,0.5633 -1.49448,0.003 0.247286,0.91651 0.155063,0.98947 -0.666268,1.73707 1.003036,-0.53136 1.433338,-0.51009 1.951274,0.10708 -0.520052,-0.7913 -0.461173,-1.1226 0.209474,-1.8474 z m 0.27424,0.001 0.174135,1.71239 -1.488001,0.8655 1.456341,0.31424 c -0.142728,0.12438 -0.30116,0.2835 -0.466029,0.44837 l -4.72e-4,4.6e-4 -3.406201,3.36753 v 0.28958 h 0.479081 l 3.316792,-3.26833 c 0.152861,-0.15291 0.281615,-0.2911 0.384088,-0.41344 l 0.282149,1.30733 0.86552,-1.48797 1.71242,0.17414 -1.14764,-1.28265 0.695096,-1.57461 -1.574635,0.69511 -1.282654,-1.14761 z m -3.606393,0.50329 c 0.503053,0.4121 0.524581,0.63717 0.458133,1.30779 0.282701,-0.80049 0.416625,-1.00262 0.960962,-1.22168 -0.583326,0.1397 -0.833057,0.1681 -1.419095,-0.0861 z m 0.815701,1.5257 c 0.371795,0.40243 0.401816,0.6508 0.361292,1.07358 0.220127,-0.51324 0.328842,-0.68023 0.828736,-0.95813 -0.514897,0.16662 -0.677888,0.15226 -1.190028,-0.11553 z m 4.850904,1.41532 c 0.138109,0.77016 -0.06869,1.09812 -0.489346,1.58947 0.645111,-0.55187 0.861916,-0.65976 1.442844,-0.5773 -0.575043,-0.1707 -0.706584,-0.30728 -0.953514,-1.01216 z m -0.829227,1.08477 c -0.27868,1.02488 -0.674968,1.25063 -1.603466,1.04476 0.806404,0.29945 0.839389,0.3139 0.797553,1.27009 0.368846,-0.82566 0.692638,-0.77794 1.416263,-0.55448 -0.622388,-0.47434 -0.681014,-0.72956 -0.61035,-1.76034 z m 1.629075,0.83387 c -0.228247,0.26809 -0.341655,0.26058 -0.652739,0.1392 0.340105,0.27478 0.262155,0.50689 0.16156,0.88504 0.239123,-0.28485 0.350356,-0.37598 0.749581,-0.18902 -0.340584,-0.31798 -0.404201,-0.44484 -0.258402,-0.83524 z"
         fill="#000000"
         fill-opacity="1"
         id="path1501"
         style="stroke-width:0.0148985" />
    </g>
    <text
       xml:space="preserve"
       style="font-size:5.54739px;line-height:1.25;font-family:'COCOGOOSE LETTERPRESS';-inkscape-font-specification:'COCOGOOSE LETTERPRESS';letter-spacing:0px;word-spacing:0px;stroke-width:0.297174"
       x="19.842678"
       y="65.921127"
       id="text41"><tspan
         sodipodi:role="line"
         x="19.842678"
         y="65.921127"
         style="stroke-width:0.297174"
         id="tspan45">Charisma</tspan></text>
    <path
       d="m 11.7726,60.539333 c -1.528418,0 -3.0519381,0.421216 -4.0707421,1.230459 0.0052,0.31944 0.04047,0.793014 0.207737,1.073632 2.4627861,-1.34312 5.2632231,-1.34312 7.7260091,0 0.167245,-0.280618 0.202529,-0.754192 0.207738,-1.073632 -1.018805,-0.809243 -2.542325,-1.230459 -4.070742,-1.230459 z m 4.447903,1.69308 c -0.0072,0.06634 -0.01598,0.134009 -0.02774,0.202171 -0.04955,0.287831 -0.138305,0.588973 -0.355948,0.800939 -0.321355,0.414873 -0.908369,0.678105 -1.621868,0.859329 -0.723048,0.183673 -1.582355,0.273316 -2.442351,0.273316 -0.859975,0 -1.719303,-0.08967 -2.4423285,-0.273294 -0.7102666,-0.1804 -1.2948996,-0.442275 -1.6171896,-0.853919 -0.2667495,-0.266728 -0.3613794,-0.640796 -0.3955722,-0.976287 -0.305639,0.606738 -0.2560643,1.382878 0.014959,2.195972 0.3181495,0.954448 1.6408338,2.000032 4.4401123,2.000032 2.799279,0 4.122008,-1.045584 4.440158,-2.000032 l 0.0022,-0.0066 0.0027,-0.0064 c 0.336893,-0.817233 0.34749,-1.60239 0.0029,-2.215226 z"
       fill="#000000"
       fill-opacity="1"
       id="path1662"
       style="stroke-width:0.0222607" />
    <g
       id="g2613"
       transform="translate(1.5688391,-1.9822226)">
      <text
         xml:space="preserve"
         style="font-size:5.54739px;line-height:1.25;font-family:'COCOGOOSE LETTERPRESS';-inkscape-font-specification:'COCOGOOSE LETTERPRESS';letter-spacing:0px;word-spacing:0px;stroke-width:0.264583"
         x="18.17676"
         y="126.60921"
         id="text1213"><tspan
           sodipodi:role="line"
           x="18.17676"
           y="126.60921"
           style="font-size:5.54739px;stroke-width:0.264583"
           id="tspan1217">Parade</tspan></text>
    </g>
    <path
       d="m 10.136519,118.87206 -0.06032,0.0301 c -1.4387593,0.71937 -1.4006163,0.70701 -2.8393753,0.9468 l -0.128761,0.0214 0.01723,0.12948 c 0.241666,1.81244 0.724445,3.2652 1.27423,4.2731 0.274864,0.50397 0.566152,0.89698 0.858205,1.16933 0.292054,0.27233 0.588422,0.42966 0.8787973,0.42966 0.290374,0 0.586743,-0.15732 0.878796,-0.42965 0.292053,-0.27231 0.583328,-0.66535 0.858206,-1.1693 0.549786,-1.00792 1.032564,-2.46068 1.27423,-4.27314 l 0.01723,-0.12948 -0.128761,-0.0214 c -1.438759,-0.23979 -1.400618,-0.22741 -2.839376,-0.94679 l -0.06032,-0.0302 z m -0.4795853,0.63038 c 0.239792,0 0.239792,0 0.4795853,0.2398 0.239793,-0.2398 0.239793,-0.2398 0.479587,-0.2398 -0.239794,0.2398 -0.239794,0.2398 -0.239794,0.47958 l 0.03996,0.7194 h 1.635959 c 0,0 0.24243,0 0.482225,-0.2398 0,0.2398 0,0.2398 -0.239795,0.47958 0.239795,0.2398 0.239795,0.2398 0.239795,0.47959 C 12.294663,121.181 12.052231,121.181 12.052231,121.181 h -1.60931 l 0.17319,3.1173 c 0,0 0,0.47959 0.239793,0.95917 -0.239793,0 -0.71938,0 -0.71938,-0.23978 0,0.23978 -0.4795853,0.23978 -0.7193803,0.23978 0.239795,-0.47958 0.239795,-0.95917 0.239795,-0.95917 l 0.173175,-3.1173 h -1.60999 c 0,0 -0.24174,0 -0.481533,0.23979 0,-0.23979 0,-0.23979 0.239793,-0.47959 -0.239793,-0.23978 -0.239793,-0.23978 -0.239793,-0.47958 0.239793,0.2398 0.481533,0.2398 0.481533,0.2398 h 1.636648 l 0.03996,-0.7194 c 0,-0.23978 0,-0.23978 -0.239792,-0.47958 z"
       fill="#000000"
       fill-opacity="1"
       id="path1726"
       style="stroke-width:0.014987" />
    <g
       id="g2537"
       transform="translate(-1.4812421)">
      <text
         xml:space="preserve"
         style="font-size:4.9389px;line-height:1.25;font-family:'COCOGOOSE LETTERPRESS';-inkscape-font-specification:'COCOGOOSE LETTERPRESS';letter-spacing:0px;word-spacing:0px;stroke-width:0.264583"
         x="7.70225"
         y="21.238131"
         id="text1795"><tspan
           sodipodi:role="line"
           x="7.70225"
           y="21.238131"
           style="stroke-width:0.264583"
           id="tspan1797">Name</tspan></text>
      <text
         xml:space="preserve"
         style="font-size:4.9389px;line-height:1.25;font-family:'COCOGOOSE LETTERPRESS';-inkscape-font-specification:'COCOGOOSE LETTERPRESS';letter-spacing:0px;word-spacing:0px;stroke-width:0.264583"
         x="84.133492"
         y="20.061268"
         id="text1803"><tspan
           sodipodi:role="line"
           id="tspan1801"
           x="84.133492"
           y="20.061268"
           style="stroke-width:0.264583">Typ</tspan></text>
      <path
         style="fill:#000000;stroke:#000000;stroke-width:0.392153px;stroke-linecap:butt;stroke-linejoin:miter;stroke-opacity:1"
         d="m 29.104167,21.166667 c 50.270833,0 50.270833,0 50.270833,0"
         id="path895-0" />
      <path
         style="fill:#000000;stroke:#000000;stroke-width:0.359864px;stroke-linecap:butt;stroke-linejoin:miter;stroke-opacity:1"
         d="m 100.54167,21.166667 c 42.33333,0 42.33333,0 42.33333,0"
         id="path895-2" />
    </g>
    <rect
       style="opacity:1;vector-effect:none;fill:#ffffff;fill-opacity:1;fill-rule:evenodd;stroke-width:0.305514;stroke-linecap:butt;stroke-linejoin:miter;stroke-miterlimit:4;stroke-dasharray:none;stroke-dashoffset:0;stroke-opacity:1"
       id="rect2597"
       width="74.083336"
       height="10.583334"
       x="37.041668"
       y="2.645833"
       ry="5.291667"
       rx="0" />
    <text
       xml:space="preserve"
       style="font-size:6.35px;line-height:1.25;font-family:'COCOGOOSE LETTERPRESS';-inkscape-font-specification:'COCOGOOSE LETTERPRESS';letter-spacing:0px;word-spacing:0px;fill-opacity:1;fill-rule:evenodd;stroke:none;stroke-width:0.265;stroke-miterlimit:4;stroke-dasharray:none;stroke-opacity:1"
       x="38.195469"
       y="7.4298229"
       id="text2433"><tspan
         sodipodi:role="line"
         id="tspan2431"
         x="38.195469"
         y="7.4298229"
         style="font-size:6.35px;fill-opacity:1;fill-rule:evenodd;stroke:none;stroke-width:0.265;stroke-miterlimit:4;stroke-dasharray:none;stroke-opacity:1">Das schwarze Auge</tspan></text>
    <path
       d="m 11.65826,130.43301 -0.124961,0.17585 0.580016,0.41096 0.124947,-0.17647 z m -1.357485,0.0777 0.373309,0.69974 0.02778,0.0199 0.228303,-0.62259 z m 0.888536,0.19484 -0.252986,0.69108 0.627836,0.44443 0.544536,-0.48654 c -0.01393,-0.008 -0.02932,-0.0185 -0.0432,-0.0284 z m -3.6909703,0.0273 0.167216,0.70698 0.457072,0.0402 0.04164,-0.45709 z m 6.3411473,0.41422 c -0.08639,0.0726 -0.188195,0.13258 -0.300805,0.1811 0.07712,0.71654 -0.226763,1.28729 -0.697252,1.693 -0.408788,0.35326 -0.939442,0.59236 -1.465468,0.73891 -0.03856,0.0742 -0.07712,0.14191 -0.114153,0.20207 0.640178,0.0833 1.437701,-0.32704 1.993035,-0.92555 0.305433,-0.32857 0.536821,-0.70806 0.634006,-1.06748 0.08022,-0.29927 0.0725,-0.57725 -0.04938,-0.82205 z m -5.4191373,0.13435 -0.04627,0.50103 -0.499031,-0.0446 3.4947513,4.18043 0.30852,-0.25762 0.236018,-0.19744 z m 4.8499203,0.13842 c -0.0648,0.0154 -0.131121,0.0307 -0.197453,0.0417 -0.229844,0.0386 -0.464319,0.0478 -0.671027,0.004 l -0.632465,0.56476 c 0.0617,0.10807 0.07713,0.24218 0.06941,0.37793 -0.0092,0.19437 -0.06634,0.41189 -0.14346,0.63093 -0.04627,0.12789 -0.09719,0.25607 -0.152717,0.37947 0.414958,-0.14193 0.811405,-0.34398 1.118382,-0.60778 0.404158,-0.35171 0.655601,-0.79598 0.609324,-1.39158 z m -2.468151,0.22072 -0.78981,1.11378 0.472034,0.56304 0.89779,-1.26647 z m -1.5456843,2.18125 -2.148373,3.02966 0.578936,0.41032 2.03993,-2.87694 z m 3.5942503,1.22173 -2.059365,1.72 0.296178,0.35635 2.059365,-1.72154 z m -0.282295,1.20169 -0.544536,0.45352 0.612409,0.73427 0.544537,-0.45351 z"
       fill="#000000"
       fill-opacity="1"
       id="path1369"
       style="stroke-width:0.0154258" />
    <text
       xml:space="preserve"
       style="font-size:5.54739px;line-height:1.25;font-family:'COCOGOOSE LETTERPRESS';-inkscape-font-specification:'COCOGOOSE LETTERPRESS';letter-spacing:0px;word-spacing:0px;stroke-width:0.264583"
       x="20.08399"
       y="136.26129"
       id="text2589"><tspan
         sodipodi:role="line"
         id="tspan2587"
         x="20.08399"
         y="136.26129"
         style="stroke-width:0.264583">Waffe</tspan><tspan
         sodipodi:role="line"
         x="20.08399"
         y="143.19553"
         style="stroke-width:0.264583"
         id="tspan2593" /><tspan
         sodipodi:role="line"
         x="20.08399"
         y="150.12976"
         style="stroke-width:0.264583"
         id="tspan2591" /></text>
    <text
       xml:space="preserve"
       style="font-size:5.54739px;line-height:1.25;font-family:'COCOGOOSE LETTERPRESS';-inkscape-font-specification:'COCOGOOSE LETTERPRESS';letter-spacing:0px;word-spacing:0px;stroke-width:0.264583"
       x="19.898151"
       y="192.16275"
       id="text1838"><tspan
         sodipodi:role="line"
         x="19.898151"
         y="192.16275"
         style="stroke-width:0.264583"
         id="tspan1840">Stufe</tspan></text>
    <path
       d="m 7.1080627,193.1458 v -1.10243 h 1.2826836 v -1.10243 h 1.282684 v -1.10243 h 1.2826827 v -1.10243 h 1.282683 v -1.10243 h 1.282684 v -1.10243 h 1.282684 v 6.61458 z"
       fill="#000000"
       fill-opacity="1"
       id="path212"
       style="stroke-width:0.0185805" />
    <text
       xml:space="preserve"
       style="font-size:5.54739px;line-height:1.25;font-family:'COCOGOOSE LETTERPRESS';-inkscape-font-specification:'COCOGOOSE LETTERPRESS';letter-spacing:0px;word-spacing:0px;stroke-width:0.264583"
       x="20.026138"
       y="112.41128"
       id="text1209"><tspan
         sodipodi:role="line"
         id="tspan1207"
         x="20.026138"
         y="112.41128"
         style="font-size:5.54739px;stroke-width:0.264583">Attacke</tspan></text>
    <path
       d="m 12.461173,106.0169 -0.422367,0.19569 -0.542322,2.25934 1.11678,-2.05617 -0.152053,-0.39886 z m -4.621954,0.44818 c 0.2102289,1.41285 0.8893599,2.59706 1.8398354,3.59471 0.2595359,-0.17563 0.5216236,-0.35597 0.7844646,-0.53998 -0.406869,-0.50159 -0.6950699,-1.03213 -0.8005332,-1.58443 -0.6283003,-0.48651 -1.2416337,-0.98019 -1.8237491,-1.47029 z m 7.170525,5.3e-4 c -0.567755,0.47815 -1.165278,0.95983 -1.777345,1.43527 -0.189753,1.06942 -1.0667,2.05812 -2.170935,2.91296 -1.2015995,0.93019 -2.6914015,1.70661 -3.953365,2.22947 l -3.63e-5,0.60197 c 1.7197721,-0.62679 3.5910463,-1.49442 5.0844843,-2.69199 1.451387,-1.16386 2.54025,-2.62719 2.817197,-4.48767 z m -4.336767,0.17159 -0.156092,0.51076 0.747187,1.34166 -0.126251,-1.56662 -0.464844,-0.28581 z m 2.106111,1.61259 c -1.932517,1.4737 -3.9733436,2.8582 -5.670989,3.83228 v 0.58936 c 1.2104894,-0.51259 2.6183155,-1.25809 3.743357,-2.12905 0.915069,-0.70836 1.631112,-1.49689 1.92765,-2.29259 z m -2.654729,0.0395 c 0.134972,0.34689 0.349463,0.69195 0.624369,1.02954 0.129099,-0.0914 0.258122,-0.18418 0.387367,-0.27719 -0.338703,-0.24711 -0.676946,-0.49802 -1.011736,-0.75237 z m 3.096032,2.21001 c -0.175798,0.17396 -0.359565,0.34136 -0.549191,0.50327 1.008433,0.68486 2.152756,1.26996 3.156855,1.69233 v -0.57094 c -0.805439,-0.45887 -1.691365,-1.0124 -2.607664,-1.62466 z m -0.824646,0.73106 c -0.21394,0.17116 -0.435152,0.33521 -0.66165,0.49299 1.291455,0.82885 2.74227,1.46497 4.093941,1.95345 v -0.61006 c -1.080858,-0.44482 -2.334043,-1.07843 -3.432311,-1.83638 z m -1.076582,0.95553 -0.848188,1.43697 0.143476,0.43326 0.509597,-0.20832 0.195115,-1.66192 z m 0.290958,0.0149 0.943423,1.92132 0.669729,0.18878 -0.06487,-0.58704 -1.548255,-1.52306 z"
       fill="#000000"
       fill-opacity="1"
       id="path256"
       style="stroke-width:0.0183638" />
    <text
       xml:space="preserve"
       style="font-size:5.54739px;line-height:1.25;font-family:'COCOGOOSE LETTERPRESS';-inkscape-font-specification:'COCOGOOSE LETTERPRESS';letter-spacing:0px;word-spacing:0px;stroke-width:0.264583"
       x="19.67487"
       y="147.38544"
       id="text2604"><tspan
         sodipodi:role="line"
         id="tspan2602"
         x="19.67487"
         y="147.38544"
         style="stroke-width:0.264583">Rstungsschutz</tspan></text>
    <path
       d="m 10.168614,141.99409 c -0.5809623,0 -1.1678553,0.21413 -2.2311733,0.63761 h 4.4623473 c -1.063334,-0.42348 -1.650226,-0.63761 -2.231174,-0.63761 z m -2.5609163,0.89265 -0.499635,5.99359 c 0.892661,0.44633 1.785322,0.50212 2.677983,0.5091 v -3.8247 h -1.912845 v -0.76513 h 4.5908273 v 0.76513 h -1.912844 v 3.8247 c 0.89266,-0.007 1.785322,-0.0627 2.677983,-0.5091 l -0.499636,-5.99359 z m 1.034132,1.40276 a 0.12752299,0.12752299 0 0 1 0.124016,0.12752 0.12752301,0.12752301 0 0 1 -0.255046,0 0.12752299,0.12752299 0 0 1 0.13103,-0.12752 z m 0.765138,0 a 0.12752299,0.12752299 0 0 1 0.124015,0.12752 0.12752299,0.12752299 0 0 1 -0.255045,0 0.12752299,0.12752299 0 0 1 0.13103,-0.12752 z m 0.7651373,0 a 0.12752299,0.12752299 0 0 1 0.124016,0.12752 0.12752301,0.12752301 0 0 1 -0.255046,0 0.12752299,0.12752299 0 0 1 0.13103,-0.12752 z m 0.765138,0 a 0.12752299,0.12752299 0 0 1 0.124017,0.12752 0.1275235,0.1275235 0 0 1 -0.255047,0 0.12752299,0.12752299 0 0 1 0.13103,-0.12752 z m 0.765138,0 a 0.12752299,0.12752299 0 0 1 0.124017,0.12752 0.12752301,0.12752301 0 0 1 -0.255046,0 0.12752299,0.12752299 0 0 1 0.131029,-0.12752 z m -1.661289,1.27523 v 3.82569 c 0.04251,3e-5 0.08501,0 0.127522,0 0.04251,0 0.08501,3e-5 0.127524,0 v -3.82569 z m -1.9128453,0.76514 h 0.255046 v 0.25504 h -0.255046 z m 0.510092,0 h 0.255046 v 0.25504 h -0.255046 z m 0.510092,0 h 0.255046 v 0.25504 h -0.255046 z m 1.7853213,0 h 0.255046 v 0.25504 h -0.255046 z m 0.510092,0 h 0.255046 v 0.25504 h -0.255046 z m 0.510092,0 h 0.255046 v 0.25504 h -0.255046 z m -3.8256893,0.51009 h 0.255046 v 0.25504 h -0.255046 z m 0.510092,0 h 0.255046 v 0.25504 h -0.255046 z m 0.510092,0 h 0.255046 v 0.25504 h -0.255046 z m 1.7853213,0 h 0.255046 v 0.25504 h -0.255046 z m 0.510092,0 h 0.255046 v 0.25504 h -0.255046 z m 0.510092,0 h 0.255046 v 0.25504 h -0.255046 z m -3.8256893,0.5101 h 0.255046 v 0.25504 h -0.255046 z m 0.510092,0 h 0.255046 v 0.25504 h -0.255046 z m 0.510092,0 h 0.255046 v 0.25504 h -0.255046 z m 1.7853213,0 h 0.255046 v 0.25504 h -0.255046 z m 0.510092,0 h 0.255046 v 0.25504 h -0.255046 z m 0.510092,0 h 0.255046 v 0.25504 h -0.255046 z"
       fill="#000000"
       fill-opacity="1"
       id="path303"
       style="stroke-width:0.0159404" />
    <text
       xml:space="preserve"
       style="font-size:5.54739px;line-height:1.25;font-family:'COCOGOOSE LETTERPRESS';-inkscape-font-specification:'COCOGOOSE LETTERPRESS';letter-spacing:0px;word-spacing:0px;stroke-width:0.264583"
       x="20.026138"
       y="180.88702"
       id="text1846"><tspan
         sodipodi:role="line"
         id="tspan1844"
         x="20.026138"
         y="180.88702"
         style="stroke-width:0.264583">Abenteuerpunkte</tspan></text>
    <path
       d="m 11.402419,176.29043 c -0.626037,-8.2e-4 -1.410342,0.19678 -2.184095,0.59948 -0.772522,0.40271 -1.384843,0.93027 -1.7442864,1.44552 -0.3596192,0.51349 -0.4568662,0.99181 -0.2799575,1.33296 0.1770834,0.3394 0.6248049,0.5346 1.2524249,0.5346 0.627619,0.002 1.411925,-0.19696 2.183919,-0.5979 0.773754,-0.40272 1.385722,-0.93203 1.744463,-1.44552 0.360499,-0.51349 0.455458,-0.99181 0.279605,-1.33296 -0.177611,-0.3394 -0.624278,-0.53618 -1.252073,-0.53618 z m 1.616089,1.23607 c -0.06155,0.26905 -0.195197,0.54515 -0.383359,0.8142 -0.397428,0.56801 -1.046326,1.12194 -1.858767,1.54399 -0.812441,0.42381 -1.637192,0.63659 -2.330053,0.63659 -0.327086,0 -0.630257,-0.0492 -0.8857717,-0.153 l 0.1862287,0.35875 c 0.17726,0.34115 0.62375,0.53635 1.251722,0.53635 0.627795,0 1.4121,-0.19696 2.184094,-0.59966 0.773754,-0.40095 1.385722,-0.93026 1.744462,-1.44551 0.35874,-0.51349 0.457218,-0.99181 0.279607,-1.33121 z m 0.506457,0.29543 c 0.196956,0.46953 0.03869,1.04105 -0.337637,1.5774 -0.332363,0.47657 -0.840579,0.93906 -1.470132,1.32593 0.195197,0.0211 0.399186,0.0317 0.606694,0.0317 0.870471,0 1.658293,-0.1864 2.213989,-0.47656 0.557453,-0.29015 0.863438,-0.67 0.863438,-1.05336 0,-0.38335 -0.305985,-0.76319 -0.863438,-1.05335 -0.283123,-0.14772 -0.627795,-0.26906 -1.012914,-0.35171 z m 1.876352,2.19465 c -0.179371,0.20927 -0.425564,0.39391 -0.715722,0.54515 -0.615486,0.32005 -1.445512,0.51173 -2.361705,0.51173 -0.37281,0 -0.731549,-0.0317 -1.067429,-0.0915 -0.407979,0.20575 -0.817717,0.35874 -1.211628,0.45898 0.0211,0.0123 0.04221,0.0229 0.06506,0.0352 0.555696,0.29017 1.343518,0.47656 2.213991,0.47656 0.870472,0 1.658293,-0.18639 2.213989,-0.47656 0.557454,-0.29015 0.863439,-0.67 0.863439,-1.05336 z"
       fill="#000000"
       fill-opacity="1"
       id="path347"
       style="stroke-width:0.0175853" />
  </g>
</svg>
